<svg xmlns="http://www.w3.org/2000/svg" xmlns:xlink="http://www.w3.org/1999/xlink" width="80.752" height="80.75" viewBox="0 0 80.752 80.75"><defs><clipPath id="a"><rect width="80.752" height="80.749" fill="none"/></clipPath></defs><g clip-path="url(#a)"><path d="M49.005,80.734H48.68c-.108-.169-.217-.167-.325,0H31.265V71.428c-1.551.529-3.014,1.072-4.486,1.591a.9.9,0,0,0-.732,1.055c.024,2.22.01,4.44.01,6.66q-12.695,0-25.39.016C.11,80.751,0,80.64,0,80.082.024,72.758.016,65.434.016,58.11c.194-.765.357-1.538.587-2.292a15.067,15.067,0,0,1,2.269-4.394,13.936,13.936,0,0,1,3.505-3.431,16.606,16.606,0,0,1,3.552-1.77.654.654,0,0,0,.5-.642c-.007-.487,0-.974,0-1.462,0-.275-.123-.391-.391-.507A14.015,14.015,0,0,1,7.012,41.8l-.189-.13c-.12-.1-.236-.214-.361-.311a16.656,16.656,0,0,1-5.7-8.306c-.321-1.01-.5-2.065-.748-3.1V28.489c.211-.163.21-.325,0-.488v-.488q.252-.163,0-.325V25.559c.044-.025.124-.045.128-.075a15.86,15.86,0,0,1,2.34-6.6l.132-.172a10.463,10.463,0,0,1,2.121-2.785q.172.04.133-.132a1.4,1.4,0,0,1,.518-.521c.114.028.157-.016.131-.13a2.68,2.68,0,0,1,1.173-.967c.093-.019.164-.056.132-.172.291-.218.572-.452.875-.652A18.747,18.747,0,0,1,17.99,10.428c1.894-.03,3.791-.061,5.683.013a7.912,7.912,0,0,1,4.206,1.113,7.17,7.17,0,0,1,3.342,6.215A4.286,4.286,0,0,1,30,21.164v.168a1.894,1.894,0,0,1-.509.883,8.02,8.02,0,0,1-2.383,1.833c-.38.187-.43.359-.239.713a29.74,29.74,0,0,1,1.651,3.469,16.565,16.565,0,0,1,1.426,6.437,3.492,3.492,0,0,1-.682.364c-.923.26-1.812.64-2.728.929-.289.091-.522.133-.45.5-.083.986-.038,1.972-.167,2.964a5.67,5.67,0,0,1-4.437,4.658c-.637.074-.642.29-.639.767.017,2.38.061,4.761-.015,7.138a4.1,4.1,0,0,0,.981,3.139,6.793,6.793,0,0,1,.506.7c.056.162-.12.574.332.307a.8.8,0,0,1,.206-.111c2.7-.534,5.272-1.506,7.937-2.153.407-.1.5-.361.487-.759-.029-1.028.006-2.058-.018-3.087-.009-.4.067-.6.523-.553s.924-.028,1.379.019c.546.056.761-.086.724-.685-.057-.917-.015-1.841-.015-2.761,0-1.768,0-1.768,1.806-1.771a1.442,1.442,0,0,1,.243,0c.483.083.569-.15.564-.587-.02-2.031.016-4.062-.016-6.093a3.7,3.7,0,0,1,1.291-2.768l.178-.127c.971-.331,1.519-.9,1.147-2a.524.524,0,0,1,0-.162q0-14.6,0-29.209a1.869,1.869,0,0,1,.17-.762A4.013,4.013,0,0,1,43.321,0Q58.576.02,73.832.005a5.152,5.152,0,0,1,2.487.649c.034.085.067.172.188.131l.812.7c-.032.308.284.423.368.666a7.245,7.245,0,0,1,.46,2.649q-.022,13.456,0,26.912a4.33,4.33,0,0,1-.189,1.817c-.232.5.03.593.355.742a3.621,3.621,0,0,1,1.634,1.209,4.7,4.7,0,0,1,.8,2.683c0,4.689-.011,9.377.01,14.066a8.54,8.54,0,0,1-.517,3.107.53.53,0,0,0-.325.489l-1.126.967c-.254.111-.5.241-.763.33s-.3.183-.061.344a18.492,18.492,0,0,1,.176,3.849c.008,3.919-.015,7.838.014,11.756a8.2,8.2,0,0,1-.519,3.1.528.528,0,0,0-.324.489,2.038,2.038,0,0,0-.64.64.49.49,0,0,0-.488.324,6.143,6.143,0,0,1-3.1.515q-6.994-.025-13.988,0a5.615,5.615,0,0,1-2.261-.337l-.665-.449-.683-.684a.409.409,0,0,0-.273-.335,5.929,5.929,0,0,1-.517-2.944c.018-4.774.007-9.548.009-14.322,0-.585.016-1.17.024-1.755a18.184,18.184,0,0,1-1.868-.027c-.672-.074-.777.2-.774.8.022,5.859,0,11.718.024,17.577a8.326,8.326,0,0,1-.519,3.112.527.527,0,0,0-.324.489,2.038,2.038,0,0,0-.64.64.489.489,0,0,0-.488.325l-1.133.506M6.523,72.565l-.19-.137A16.006,16.006,0,0,1,2.62,68.54c0,3.153.018,6.026-.015,8.9-.007.583.162.707.721.7,4.364-.024,8.729-.013,13.093-.013,2.114,0,4.229-.011,6.343.009.476,0,.735-.039.707-.634-.054-1.108-.015-2.221-.015-3.4a15.365,15.365,0,0,1-3.31,1.1,16.693,16.693,0,0,1-4.964.311,13.961,13.961,0,0,1-8.656-2.954M18.082,50.329l.109.177.047-.225c0-1.789-.021-3.579.021-5.367.014-.566-.188-.671-.689-.649-.615.027-1.45.208-1.8-.108-.412-.376-.069-1.225-.141-1.863-.055-.493.1-.651.615-.635,1.327.04,2.656.023,3.984.007a2.462,2.462,0,0,0,.953-.076c1.619-.649,2.142-1.671,2.253-3.462.07-1.134.028-2.277,0-3.415-.008-.354.085-.487.442-.589.931-.266,1.841-.607,2.76-.914.3-.1.658-.177.545-.616-.262-1.02-.509-2.047-.839-3.045-.218-.66-.858-1.174-.653-1.984.046-.18-.117-.313-.273-.35-.294-.07-.365-.324-.439-.533a2.853,2.853,0,0,0-2.952-1.924c-2.195-.041-4.392-.051-6.587.01a2.6,2.6,0,0,0-2.422,2.489c.06.945.01,1.9.01,2.846,0,1.134,0,1.155-1.132,1.146-.655-.005-1.267.211-1.414.809a1.693,1.693,0,0,0,.45,1.919c.528.417.939.98,1.453,1.417a1.785,1.785,0,0,1,.66,1.536c-.039,2.873-.015,5.747-.019,8.62,0,.356-.023.7.335.929a43.056,43.056,0,0,1,4.713,3.849M58.528,33.86c5.1,0,10.2-.033,15.294.024a1.529,1.529,0,0,0,1.715-1.707q-.006-13.952,0-27.9c0-1.134-.534-1.658-1.682-1.66-2.658-.005-5.316.026-7.972-.02-.687-.012-.781.235-.773.826.031,2.115-.006,4.23.025,6.345.008.537-.149.674-.677.671-3.878-.022-7.756-.029-11.633.006-.647.006-.745-.208-.736-.781.033-2.115-.008-4.23.027-6.345.009-.571-.143-.724-.716-.718-2.711.031-5.423.011-8.135.015-1.186,0-1.578.4-1.578,1.617q0,14.033,0,28.066c0,1.275.288,1.562,1.551,1.563q7.647,0,15.294,0M20.449,22.141c1.139,0,2.281-.055,3.416.012a4.565,4.565,0,0,0,4.644-3.5,4.514,4.514,0,0,0-3.657-5.575c-2.728-.17-5.475-.076-8.213-.025a11.352,11.352,0,0,0-2.939.4,15,15,0,0,0-10,8.654,15.2,15.2,0,0,0-1.095,6.516,14.683,14.683,0,0,0,2.359,7.31,14.045,14.045,0,0,0,4.179,4.182c.334.236.75.692,1.11.519.406-.195.111-.779.173-1.187a4.055,4.055,0,0,0-1.5-3.974,3.949,3.949,0,0,1,1-6.324.833.833,0,0,0,.515-.884,7.314,7.314,0,0,1,.147-2.328,4.926,4.926,0,0,1,4.032-3.621,43.531,43.531,0,0,1,5.827-.173M59.911,45.571c0,2.574-.005,5.149,0,7.723,0,1.062.336,1.395,1.388,1.4q7.642.007,15.284,0c1.057,0,1.545-.456,1.547-1.513q.019-7.6,0-15.2a1.418,1.418,0,0,0-1.508-1.506c-1.029-.018-2.061.027-3.089-.017-.531-.023-.626.174-.616.65.029,1.327-.007,2.656.02,3.983.009.451-.108.6-.582.6q-3.333-.036-6.666,0c-.472.005-.593-.143-.584-.6.027-1.354,0-2.71.017-4.065.006-.4-.077-.58-.53-.567-1.11.031-2.222,0-3.333.016-.968.017-1.347.408-1.349,1.378-.007,2.574,0,5.149,0,7.723m-2.6,20.839h0c0,2.6-.007,5.2,0,7.8,0,.956.358,1.305,1.31,1.306q7.682.009,15.365,0c1.047,0,1.539-.465,1.541-1.52q.019-7.6,0-15.2a1.416,1.416,0,0,0-1.515-1.5c-1.029-.018-2.061.029-3.089-.017-.54-.024-.618.191-.609.656.027,1.327-.009,2.656.02,3.983.01.46-.124.6-.589.592q-3.333-.035-6.666,0c-.478.005-.585-.161-.577-.6.025-1.327-.011-2.656.02-3.983.011-.484-.1-.666-.621-.645-1.055.043-2.113,0-3.17.016s-1.423.377-1.426,1.468c-.006,2.547,0,5.095,0,7.642M33.869,56.1c.209-.089.382-.149.541-.233a5.021,5.021,0,0,1,5.719.8,2.7,2.7,0,0,0,1.99.789,4.424,4.424,0,0,1,4.342,3.1,4.969,4.969,0,0,1-1.045,5.168,9.032,9.032,0,0,1-3.879,2q-3.472,1.236-6.944,2.473a.983.983,0,0,0-.747,1.1c.059,2.032.047,4.067.006,6.1-.012.6.13.761.747.757,4.338-.031,8.677-.048,13.015,0,1.253.015,1.883-.337,1.882-1.921q-.013-10.941,0-21.882c0-.434.01-.868,0-1.3-.018-.608-.212-.974-.95-.97-4.691.026-9.382.018-14.073.005-.424,0-.629.053-.611.556.039,1.136.012,2.273.012,3.466M2.63,60.181a9.55,9.55,0,0,0,.449,3.553A13.23,13.23,0,0,0,7.7,70.281a.629.629,0,0,0,.976-.08c1.257-1.274,2.53-2.532,3.793-3.8.163-.164.351-.3.249-.611-.683-2.117-1.444-4.183-3.262-5.641-.44-.353-.9-1-1.331-.975-.678.033-1.03-.454-1.555-.616-.878-.271.012-.915-.036-1.4-.019-.2.138-.408.141-.613,0-.4.143-.4.5-.325a9.677,9.677,0,0,1,4.37,2.433,11.026,11.026,0,0,1,3.256,5.385c.22.777.542.834,1.225.6.991-.339,2.021-.558,3.031-.841.933-.262,1.872-.509,2.783-.836.214-.077.829-.085.51-.661-.624-1.126-.917-2.387-1.5-3.541a28.456,28.456,0,0,0-7.825-9.479c-.391-.313-.946-.463-1.364-.788-.219-.171-.361-.068-.569.01a12.68,12.68,0,0,0-5.989,4.157A11.16,11.16,0,0,0,2.63,60.181M10.6,71.865a2.2,2.2,0,0,0,.737.41,12.466,12.466,0,0,0,5.259.635,23.462,23.462,0,0,0,2.647-.114,25.691,25.691,0,0,0,4.5-1.437c2.091-.706,4.17-1.46,6.253-2.2,2.447-.866,4.877-1.778,7.307-2.689,1.353-.507,2.717-1.011,4.077-1.471,2.207-.746,2.381-.738,2.589-2.827a1.752,1.752,0,0,0-1.826-2.123c-1.371-.078-2.813-.045-3.657-1.468a.563.563,0,0,0-.113-.116c-1-.917-3.433-.74-3.879.872-.216.78-.54,1.529-.78,2.3a1.115,1.115,0,0,1-.756.832c-1.944.56-3.892,1.1-5.837,1.657-3.963,1.132-7.924,2.275-11.891,3.393a1.28,1.28,0,0,0-.616.325c-1.317,1.326-2.643,2.645-4.014,4.014M57.306,45.636c0-2.522.006-5.045,0-7.568a1.448,1.448,0,0,0-1.581-1.6c-1.031-.012-2.062.018-3.092-.012-.441-.013-.547.142-.54.558.023,1.356-.008,2.713.018,4.068.009.448-.1.608-.58.6q-3.336-.037-6.672,0c-.479.005-.588-.155-.58-.6.026-1.356,0-2.713.018-4.068.007-.416-.1-.57-.54-.558-1.111.03-2.224,0-3.336.016-.937.017-1.33.407-1.335,1.311-.011,1.872.026,3.744-.022,5.614-.018.684.118.9.866.905a77.354,77.354,0,0,1,8.915.147,3.449,3.449,0,0,1,2.623,1.727,5.859,5.859,0,0,1,.62,3.09c.046,1.626.025,3.255,0,4.882-.005.418.1.57.542.556a24.963,24.963,0,0,1,2.928.007c1.259.108,1.756-.679,1.751-1.749-.012-2.441,0-4.882,0-7.324M58.6,2.61c-1.083,0-2.166.018-3.248-.008-.459-.011-.682.067-.666.609.039,1.352.027,2.706,0,4.059-.007.421.118.561.549.557q3.369-.028,6.739,0c.443,0,.545-.161.539-.568-.02-1.353-.024-2.707,0-4.059.009-.456-.125-.612-.592-.6-1.109.03-2.219.01-3.329.01M42.514,49.483h5.613a1.165,1.165,0,0,0,1.156-.668,1.2,1.2,0,0,0-.114-1.4,1.515,1.515,0,0,0-1.322-.533q-4.677.006-9.354,0c-2.083,0-2.063,0-2.034,2.052.007.488.173.566.605.561,1.816-.022,3.633-.009,5.45-.011m-11.249,8.9c0-.406-.009-.812,0-1.217.014-.474.052-.889-.662-.546a8.316,8.316,0,0,1-1.369.363q-2.572.722-5.141,1.458c-.373.107-.528.27-.326.718a11.679,11.679,0,0,1,.893,2.337c.082.387.212.627.754.451,1.313-.426,2.661-.744,3.991-1.117,1.857-.52,1.856-.525,1.856-2.448M66.358,59.9c1.364,0,1.364,0,1.364-1.341a2.207,2.207,0,0,1,0-.4c.139-.735-.186-.98-.88-.862a1.939,1.939,0,0,1-.323,0c-1.4,0-1.4,0-1.4,1.382,0,1.222,0,1.222,1.24,1.222M49.494,37.738c0-1.273,0-1.273-.946-1.274-1.658,0-1.658,0-1.658,1.047,0,1.557,0,1.557,1.067,1.557,1.537,0,1.537,0,1.537-1.33m20.833.083c0-1.357,0-1.357-1.348-1.357-1.256,0-1.256,0-1.256,1.287,0,1.317,0,1.317,1.308,1.317s1.3,0,1.3-1.247" transform="translate(0 0)" fill="#12263f"/><path d="M.1,171.622c.21.163.211.325,0,.488Z" transform="translate(-0.082 -143.622)" fill="#030303"/><path d="M.1,166.634q.251.163,0,.325Z" transform="translate(-0.082 -139.448)" fill="#030303"/><path d="M296.379,494.2c.109-.167.217-.168.326,0Z" transform="translate(-248.025 -413.462)" fill="#020202"/><path d="M272.323,47.15q-7.647,0-15.294,0c-1.263,0-1.551-.288-1.551-1.563q0-14.033,0-28.067c0-1.216.392-1.615,1.578-1.617,2.712,0,5.424.016,8.135-.015.573-.007.725.147.716.718-.035,2.115.006,4.23-.027,6.345-.009.573.09.787.736.781,3.878-.035,7.756-.027,11.633-.006.528,0,.685-.135.677-.671-.031-2.115.006-4.23-.025-6.345-.009-.592.086-.838.773-.826,2.657.046,5.315.015,7.972.02,1.147,0,1.681.526,1.682,1.66q0,13.952,0,27.9a1.529,1.529,0,0,1-1.715,1.707c-5.1-.056-10.2-.024-15.294-.024m7.912-7.812h4.638c1.875,0,1.849,0,1.869-1.911.006-.586-.172-.71-.728-.706-3.471.025-6.943.013-10.414.013-1.928,0-1.906,0-1.909,1.952,0,.549.171.671.687.663,1.952-.028,3.905-.011,5.858-.011m.014,2.6c-1.336,0-1.336,0-1.336,1.289,0,1.315,0,1.315,1.309,1.315s1.3,0,1.3-1.33c0-1.275,0-1.275-1.268-1.275m-5.207,0c-1.337,0-1.337,0-1.337,1.288,0,1.316,0,1.316,1.308,1.316s1.3,0,1.3-1.328c0-1.276,0-1.276-1.267-1.276m10.414,2.6c1.269,0,1.269,0,1.269-1.192,0-1.412,0-1.412-1.375-1.412-1.229,0-1.229,0-1.229,1.233,0,1.371,0,1.371,1.335,1.371" transform="translate(-213.794 -13.29)" fill="#f0dcc0"/><path d="M33.809,88.731a43.8,43.8,0,0,0-5.827.174,4.926,4.926,0,0,0-4.032,3.621,7.315,7.315,0,0,0-.147,2.328.833.833,0,0,1-.515.884,3.949,3.949,0,0,0-1,6.324,4.055,4.055,0,0,1,1.5,3.974c-.062.408.232.992-.173,1.187-.36.173-.777-.283-1.11-.519a14.044,14.044,0,0,1-4.179-4.181,14.683,14.683,0,0,1-2.359-7.311A15.2,15.2,0,0,1,17.063,88.7a15,15,0,0,1,10-8.654,11.359,11.359,0,0,1,2.939-.4c2.737-.051,5.485-.145,8.213.025a4.514,4.514,0,0,1,3.657,5.575,4.565,4.565,0,0,1-4.644,3.5c-1.135-.067-2.277-.012-3.416-.014" transform="translate(-13.359 -66.592)" fill="#666d78"/><path d="M367.205,232.527c0-2.574,0-5.149,0-7.723,0-.97.382-1.361,1.349-1.378,1.111-.019,2.223.016,3.333-.016.453-.013.536.165.53.567-.02,1.355.01,2.71-.017,4.065-.009.454.112.6.584.6q3.333-.036,6.666,0c.474.005.591-.148.582-.6-.027-1.327.009-2.656-.02-3.983-.01-.475.085-.673.616-.65,1.028.045,2.059,0,3.089.017a1.418,1.418,0,0,1,1.509,1.506q.016,7.6,0,15.2c0,1.058-.491,1.512-1.547,1.513q-7.642.006-15.284,0c-1.052,0-1.385-.334-1.388-1.4-.008-2.574,0-5.149,0-7.723" transform="translate(-307.294 -186.956)" fill="#f0dcc0"/><path d="M351.241,360.223c0-2.547,0-5.095,0-7.642,0-1.091.355-1.454,1.426-1.468s2.115.027,3.17-.016c.523-.021.632.161.621.645-.031,1.327.006,2.656-.02,3.983-.009.443.1.609.576.6q3.333-.036,6.666,0c.465,0,.6-.132.589-.592-.029-1.327.007-2.656-.019-3.983-.009-.465.068-.681.609-.656,1.028.046,2.059,0,3.089.018a1.416,1.416,0,0,1,1.514,1.5q.017,7.6,0,15.2c0,1.055-.494,1.519-1.541,1.52q-7.683.006-15.365,0c-.952,0-1.307-.351-1.31-1.306-.01-2.6,0-5.2,0-7.8Z" transform="translate(-293.934 -293.813)" fill="#f0dcc0"/><path d="M207.478,323.211c0-1.193.027-2.33-.012-3.466-.017-.5.188-.557.611-.556,4.691.013,9.382.021,14.073-.005.738,0,.932.362.95.97.013.433,0,.868,0,1.3q0,10.941,0,21.882c0,1.584-.628,1.936-1.882,1.921-4.338-.052-8.677-.034-13.015,0-.617,0-.759-.156-.747-.757.041-2.033.052-4.068-.006-6.1a.983.983,0,0,1,.747-1.1q3.469-1.243,6.944-2.473a9.034,9.034,0,0,0,3.879-2,4.969,4.969,0,0,0,1.045-5.168,4.423,4.423,0,0,0-4.342-3.1,2.7,2.7,0,0,1-1.99-.789,5.021,5.021,0,0,0-5.719-.8c-.159.085-.332.144-.541.234" transform="translate(-173.609 -267.109)" fill="#91b3fa"/><path d="M16.007,308.434a11.161,11.161,0,0,1,2.481-7.523,12.679,12.679,0,0,1,5.989-4.156c.208-.078.35-.181.569-.01.417.325.973.475,1.364.788a28.458,28.458,0,0,1,7.825,9.479c.579,1.153.872,2.414,1.5,3.541.319.576-.3.584-.51.661-.91.327-1.85.575-2.783.836-1.01.284-2.041.5-3.031.841-.683.233-1.005.177-1.225-.6a11.027,11.027,0,0,0-3.256-5.385,9.677,9.677,0,0,0-4.37-2.433c-.358-.078-.5-.074-.5.325,0,.205-.16.416-.141.613.048.487-.842,1.131.036,1.4.525.162.876.649,1.555.616.427-.021.891.621,1.331.975,1.818,1.458,2.579,3.524,3.262,5.641.1.315-.086.447-.249.611-1.263,1.267-2.536,2.526-3.793,3.8a.629.629,0,0,1-.976.08,13.23,13.23,0,0,1-4.623-6.546,9.555,9.555,0,0,1-.449-3.553" transform="translate(-13.377 -248.253)" fill="#57dbd8"/><path d="M71.337,177.142a43.055,43.055,0,0,0-4.713-3.849c-.358-.234-.336-.573-.335-.929,0-2.874-.02-5.747.019-8.62a1.785,1.785,0,0,0-.66-1.536c-.514-.438-.926-1-1.453-1.417a1.693,1.693,0,0,1-.45-1.919c.147-.6.759-.814,1.414-.809,1.132.009,1.132-.012,1.132-1.146,0-.949.05-1.9-.01-2.846a2.6,2.6,0,0,1,2.422-2.49c2.194-.061,4.392-.051,6.587-.01a2.853,2.853,0,0,1,2.952,1.924c.073.209.144.463.439.532.157.037.319.17.273.35-.206.81.435,1.324.653,1.984.33,1,.576,2.026.839,3.046.113.439-.24.514-.545.616-.919.307-1.829.648-2.76.914-.357.1-.449.236-.442.59.024,1.138.066,2.28,0,3.415-.111,1.792-.633,2.813-2.253,3.462a2.461,2.461,0,0,1-.953.077c-1.328.016-2.657.033-3.984-.007-.517-.016-.67.142-.615.635.072.638-.271,1.487.141,1.863.346.316,1.18.135,1.8.108.5-.022.7.082.689.649-.042,1.788-.019,3.578-.021,5.367l-.156.048" transform="translate(-53.255 -126.814)" fill="#ebcdb0"/><path d="M64.956,368.932c1.371-1.369,2.7-2.687,4.014-4.014a1.28,1.28,0,0,1,.616-.325c3.967-1.118,7.927-2.261,11.891-3.393,1.945-.556,3.894-1.1,5.837-1.657a1.115,1.115,0,0,0,.756-.832c.24-.774.564-1.523.78-2.3.446-1.612,2.876-1.789,3.879-.872a.564.564,0,0,1,.113.116c.843,1.423,2.286,1.39,3.657,1.468a1.752,1.752,0,0,1,1.826,2.123c-.208,2.089-.382,2.081-2.589,2.828-1.36.46-2.724.964-4.077,1.471-2.43.911-4.861,1.823-7.307,2.688-2.083.737-4.162,1.491-6.253,2.2a25.673,25.673,0,0,1-4.5,1.437,23.452,23.452,0,0,1-2.647.114,12.466,12.466,0,0,1-5.259-.635,2.2,2.2,0,0,1-.737-.41" transform="translate(-54.358 -297.067)" fill="#eacdb0"/><path d="M257.655,232.616c0,2.441-.008,4.882,0,7.324.005,1.07-.492,1.858-1.751,1.749a24.922,24.922,0,0,0-2.928-.007c-.439.014-.547-.139-.542-.556.021-1.627.043-3.256,0-4.882a5.858,5.858,0,0,0-.62-3.09,3.449,3.449,0,0,0-2.623-1.727,77.316,77.316,0,0,0-8.915-.147c-.748-.006-.884-.221-.866-.905.048-1.87.011-3.743.022-5.614.005-.9.4-1.294,1.335-1.311,1.112-.02,2.225.014,3.336-.016.441-.012.547.142.54.558-.023,1.356.008,2.713-.018,4.068-.009.448.1.608.579.6q3.336-.037,6.672,0c.479.005.588-.155.579-.6-.026-1.356,0-2.712-.018-4.068-.007-.416.1-.571.54-.558,1.03.031,2.061,0,3.092.012a1.448,1.448,0,0,1,1.581,1.6c.009,2.523,0,5.045,0,7.568" transform="translate(-200.349 -186.98)" fill="#f0dcc0"/><path d="M19.885,424.126a13.96,13.96,0,0,0,8.656,2.954,16.694,16.694,0,0,0,4.964-.311,15.368,15.368,0,0,0,3.31-1.1c0,1.177-.038,2.29.015,3.4.029.6-.231.638-.707.634-2.114-.02-4.229-.008-6.343-.008-4.364,0-8.729-.011-13.093.013-.558,0-.727-.121-.721-.7.032-2.873.015-5.746.015-8.9a16.009,16.009,0,0,0,3.713,3.889c.034.086.073.166.19.137" transform="translate(-13.362 -351.561)" fill="#57dbd8"/><path d="M339.117,15.945c1.11,0,2.22.021,3.329-.01.467-.013.6.143.592.6-.026,1.353-.022,2.707,0,4.059.006.407-.1.572-.539.568q-3.369-.029-6.739,0c-.431,0-.556-.137-.549-.557.022-1.353.034-2.707,0-4.059-.016-.542.207-.62.666-.609,1.082.026,2.165.008,3.247.008" transform="translate(-280.514 -13.335)" fill="#fe7062"/><path d="M229.492,289.937c-1.817,0-3.633-.012-5.45.009-.432.005-.6-.073-.605-.561-.029-2.052-.048-2.052,2.035-2.052q4.677,0,9.354,0a1.515,1.515,0,0,1,1.322.532,1.2,1.2,0,0,1,.114,1.4,1.165,1.165,0,0,1-1.156.668l-5.613,0" transform="translate(-186.978 -240.453)" fill="#e6e8ed"/><path d="M152.736,348.179c0,1.924,0,1.928-1.856,2.448-1.33.373-2.678.69-3.991,1.117-.541.176-.671-.064-.754-.451a11.684,11.684,0,0,0-.893-2.337c-.2-.448-.047-.611.326-.718q2.568-.737,5.141-1.458a8.315,8.315,0,0,0,1.368-.363c.713-.343.675.072.662.546-.012.405,0,.812,0,1.217" transform="translate(-121.471 -289.792)" fill="#eacdb0"/><path d="M400.37,353.632c-1.24,0-1.24,0-1.24-1.222,0-1.382,0-1.382,1.4-1.382a1.938,1.938,0,0,0,.323,0c.694-.119,1.019.127.88.862a2.2,2.2,0,0,0,0,.4c0,1.341,0,1.341-1.364,1.341" transform="translate(-334.012 -293.732)" fill="#fe7062"/><path d="M290,224.77c0,1.331,0,1.331-1.537,1.33-1.068,0-1.068,0-1.067-1.557,0-1.049,0-1.049,1.658-1.047.946,0,.946,0,.946,1.274" transform="translate(-240.511 -187.033)" fill="#fe7062"/><path d="M417.7,224.854c0,1.247,0,1.247-1.3,1.247s-1.308,0-1.308-1.317c0-1.287,0-1.287,1.256-1.287,1.348,0,1.348,0,1.348,1.357" transform="translate(-347.37 -187.033)" fill="#fe7062"/><path d="M473.905,8.236c.207-.259.425-.2.567.039a.383.383,0,0,1-.2.628c-.084-.243-.4-.359-.368-.666" transform="translate(-396.586 -6.752)" fill="#fff"/><path d="M136.767,342.208a.518.518,0,0,1,.332.307c-.452.266-.276-.146-.332-.307" transform="translate(-114.453 -286.377)" fill="#020202"/><path d="M338.165,468.185c-.178-.041-.552.078-.273-.335a.409.409,0,0,1,.273.335" transform="translate(-282.681 -391.52)" fill="#fff"/><path d="M110.828,308.233l.156-.048-.047.225-.109-.177" transform="translate(-92.746 -257.904)" fill="#020202"/><path d="M33.028,92.958l.132-.13c.026.114-.017.158-.132.13" transform="translate(-27.639 -77.683)" fill="#fdfdfd"/><path d="M41.023,86.018l.132-.172c.032.116-.039.152-.132.172" transform="translate(-34.33 -71.84)" fill="#fdfdfd"/><path d="M39.01,444.075c-.117.029-.155-.051-.19-.137l.19.137" transform="translate(-32.486 -371.509)" fill="#030303"/><path d="M29.037,96.95l.133-.132q.039.173-.133.132" transform="translate(-24.3 -81.022)" fill="#fdfdfd"/><path d="M15.189,114.868c-.031-.115.037-.154.132-.171l-.132.171" transform="translate(-12.704 -95.984)" fill="#030303"/><path d="M231.431,212.782c.026-.089.062-.164.178-.127l-.178.127" transform="translate(-193.673 -177.952)" fill="#020202"/><path d="M467.783,4.009l.188.131c-.122.04-.154-.047-.188-.131" transform="translate(-391.464 -3.355)" fill="#fff"/><path d="M42.011,255.537c-.122.042-.155-.045-.189-.13l.189.13" transform="translate(-34.999 -213.737)" fill="#030303"/><path d="M373.662,146.227c-1.953,0-3.906-.017-5.858.011-.516.007-.688-.115-.687-.663,0-1.952-.02-1.952,1.909-1.952,3.471,0,6.943.013,10.414-.013.556,0,.734.12.728.706-.02,1.911.006,1.911-1.869,1.911h-4.638" transform="translate(-307.222 -120.18)" fill="#12263f"/><path d="M400.466,175.612c1.268,0,1.268,0,1.268,1.275,0,1.329,0,1.329-1.3,1.329s-1.309,0-1.309-1.315c0-1.289,0-1.289,1.336-1.289" transform="translate(-334.012 -146.961)" fill="#12263f"/><path d="M368.544,175.612c1.267,0,1.267,0,1.267,1.276,0,1.328,0,1.328-1.3,1.328s-1.308,0-1.308-1.316c0-1.288,0-1.288,1.337-1.288" transform="translate(-307.297 -146.961)" fill="#12263f"/><path d="M432.387,178.217c-1.335,0-1.335,0-1.335-1.371,0-1.233,0-1.233,1.229-1.233,1.375,0,1.375,0,1.375,1.412,0,1.192,0,1.192-1.269,1.192" transform="translate(-360.726 -146.962)" fill="#12263f"/></g></svg>