<svg xmlns="http://www.w3.org/2000/svg" width="72.713" height="72.713" viewBox="0 0 72.713 72.713"><g transform="translate(2.285 7.583)"><path d="M9.539,40.975H5.154A1.675,1.675,0,0,1,3.48,39.3V8.624a.554.554,0,0,1,.554-.554.562.562,0,0,1,.554.554V39.3a.554.554,0,0,0,.554.554h4.4a.56.56,0,0,1,0,1.12Z" transform="translate(-3.48 -8.07)"/></g><g transform="translate(0.566 5.125)"><ellipse cx="2.274" cy="2.274" rx="2.274" ry="2.274" fill="#b9dd53"/></g><g transform="translate(0.739 5.286)"><path d="M6.526,8.192a2.282,2.282,0,0,1-4.386.877,2.323,2.323,0,0,0,.9.185A2.281,2.281,0,0,0,5.314,6.969a2.115,2.115,0,0,0-.185-.889A2.321,2.321,0,0,1,6.526,8.192Z" transform="translate(-2.14 -6.08)" fill="#83960f"/></g><g transform="translate(0 4.559)"><path d="M4.339,11.129A2.839,2.839,0,1,1,7.179,8.289,2.837,2.837,0,0,1,4.339,11.129Zm0-4.559a1.72,1.72,0,1,0,1.72,1.72A1.724,1.724,0,0,0,4.339,6.57Z" transform="translate(-1.5 -5.45)"/></g><g transform="translate(0 71.605)"><path d="M4.293,64.648H2.054a.554.554,0,1,1,0-1.108H4.282a.554.554,0,0,1,.554.554.537.537,0,0,1-.542.554Z" transform="translate(-1.5 -63.54)"/></g><g transform="translate(4.905 71.605)"><path d="M73,64.648H6.3a.554.554,0,1,1,0-1.108H73a.554.554,0,0,1,.554.554A.562.562,0,0,1,73,64.648Z" transform="translate(-5.75 -63.54)"/></g><g transform="translate(12.569 23.107)"><path d="M71.576,21.52V67.41a3.16,3.16,0,0,1-3.162,3.162H15.552A3.16,3.16,0,0,1,12.39,67.41V21.52Z" transform="translate(-12.39 -21.52)" fill="#d5dce5"/></g><g transform="translate(12.015 22.553)"><path d="M68.488,71.2H15.626a3.714,3.714,0,0,1-3.716-3.716V21.594a.554.554,0,0,1,.554-.554H71.65a.554.554,0,0,1,.554.554v30.9a.554.554,0,0,1-1.108,0V22.148H13.03V67.484a2.6,2.6,0,0,0,2.6,2.6H68.488a2.6,2.6,0,0,0,2.6-2.6V56.392a.554.554,0,0,1,1.108,0V67.484A3.7,3.7,0,0,1,68.488,71.2Z" transform="translate(-11.91 -21.04)"/></g><g transform="translate(12.569 12.707)"><path d="M12.39,22.909V15.672a3.16,3.16,0,0,1,3.162-3.162H68.414a3.16,3.16,0,0,1,3.162,3.162v7.237Z" transform="translate(-12.39 -12.51)" fill="#1d2121"/></g><g transform="translate(34.394 12.153)"><path d="M68.661,23.537H31.854a.554.554,0,0,1-.554-.554V15.746a3.714,3.714,0,0,1,3.716-3.716H65.51a3.714,3.714,0,0,1,3.716,3.716v7.237A.58.58,0,0,1,68.661,23.537Zm-36.253-1.12H68.1V15.746a2.6,2.6,0,0,0-2.6-2.6H35a2.6,2.6,0,0,0-2.6,2.6Z" transform="translate(-31.3 -12.03)"/></g><g transform="translate(7.26 23.107)"><path d="M66.976,21.52V67.41a3.16,3.16,0,0,1-3.162,3.162H10.952A3.16,3.16,0,0,1,7.79,67.41V21.52Z" transform="translate(-7.79 -21.52)" fill="#f1f3f6"/></g><g transform="translate(7.271 40.569)"><path d="M66.974,36.65V65.077a3.15,3.15,0,0,1-3.162,3.151H10.951A3.148,3.148,0,0,1,7.8,65.077V61.153C65.324,68.782,66.974,39,66.974,36.65Z" transform="translate(-7.8 -36.65)" fill="#d5dce5"/></g><g transform="translate(6.706 22.541)"><path d="M63.888,71.2H11.026A3.729,3.729,0,0,1,7.31,67.485V41.2a.554.554,0,0,1,1.108,0V67.474a2.6,2.6,0,0,0,2.6,2.6H63.888a2.6,2.6,0,0,0,2.6-2.6V22.15H8.43V35.619a.554.554,0,0,1-1.108,0V21.584a.554.554,0,0,1,.554-.554H67.062a.554.554,0,0,1,.554.554v45.89A3.734,3.734,0,0,1,63.888,71.2Z" transform="translate(-7.31 -21.03)"/></g><g transform="translate(7.26 12.707)"><path d="M7.79,22.909V15.672a3.16,3.16,0,0,1,3.162-3.162H63.814a3.16,3.16,0,0,1,3.162,3.162v7.237Z" transform="translate(-7.79 -12.51)" fill="#323535"/></g><g transform="translate(6.706 12.153)"><path d="M67.05,23.537H7.864a.554.554,0,0,1-.554-.554V15.746a3.714,3.714,0,0,1,3.716-3.716H21.691a.554.554,0,0,1,0,1.108H11.026a2.6,2.6,0,0,0-2.6,2.6v6.671H66.5V15.735a2.6,2.6,0,0,0-2.6-2.6H25.05a.554.554,0,1,1,0-1.108H63.9a3.714,3.714,0,0,1,3.716,3.716v7.237a.572.572,0,0,1-.566.554Z" transform="translate(-7.31 -12.03)"/></g><g transform="translate(48.671 16.528)"><path d="M49.21,17.205a1.379,1.379,0,0,1-1.385,1.385h-2.77a1.385,1.385,0,1,1,0-2.77h2.77A1.382,1.382,0,0,1,49.21,17.205Z" transform="translate(-43.67 -15.82)" fill="#b9dd53"/></g><g transform="translate(50.691 16.528)"><path d="M48.94,17.205a1.428,1.428,0,0,1-.4.981,1.385,1.385,0,0,1-.993.4H45.42a1.385,1.385,0,0,0,0-2.77h2.124a1.384,1.384,0,0,1,1.4,1.385Z" transform="translate(-45.42 -15.82)" fill="#83960f"/></g><g transform="translate(48.117 15.974)"><path d="M47.9,19.218h-2.77a1.939,1.939,0,1,1,0-3.878H47.9a1.943,1.943,0,0,1,1.939,1.939,1.92,1.92,0,0,1-.566,1.373A1.968,1.968,0,0,1,47.9,19.218Zm-2.77-2.77a.825.825,0,1,0-.012,1.65h2.77a.825.825,0,1,0,.012-1.65Z" transform="translate(-43.19 -15.34)"/></g><g transform="translate(40.673 16.528)"><path d="M42.28,17.205A1.379,1.379,0,0,1,40.9,18.59h-2.77a1.385,1.385,0,1,1,0-2.77H40.9A1.382,1.382,0,0,1,42.28,17.205Z" transform="translate(-36.74 -15.82)" fill="#ff9a9a"/></g><g transform="translate(42.704 16.528)"><path d="M42.009,17.205a1.428,1.428,0,0,1-.4.981,1.385,1.385,0,0,1-.993.4H38.5a1.385,1.385,0,0,0,0-2.77h2.124a1.382,1.382,0,0,1,1.385,1.385Z" transform="translate(-38.5 -15.82)" fill="#d86666"/></g><g transform="translate(40.119 15.974)"><path d="M40.969,19.218H38.2a1.939,1.939,0,1,1,0-3.878h2.77a1.943,1.943,0,0,1,1.939,1.939,1.92,1.92,0,0,1-.566,1.373A1.948,1.948,0,0,1,40.969,19.218Zm-2.758-2.77A.825.825,0,1,0,38.2,18.1h2.77a.825.825,0,1,0,.012-1.65Z" transform="translate(-36.26 -15.34)"/></g><g transform="translate(56.67 16.528)"><path d="M50.6,17.205a1.379,1.379,0,0,0,1.385,1.385h2.77a1.385,1.385,0,1,0,0-2.77h-2.77A1.382,1.382,0,0,0,50.6,17.205Z" transform="translate(-50.6 -15.82)" fill="#564dc6"/></g><g transform="translate(58.701 16.528)"><path d="M55.869,17.205a1.389,1.389,0,0,1-1.385,1.385H52.36a1.385,1.385,0,1,0,0-2.77h2.124a1.378,1.378,0,0,1,.981.4A1.358,1.358,0,0,1,55.869,17.205Z" transform="translate(-52.36 -15.82)" fill="#2e2780"/></g><g transform="translate(56.116 15.974)"><path d="M54.829,19.218h-2.77a1.939,1.939,0,0,1,0-3.878h2.77a1.931,1.931,0,0,1,1.939,1.939A1.943,1.943,0,0,1,54.829,19.218Zm-2.77-2.77a.825.825,0,0,0,.012,1.65h2.77a.825.825,0,0,0-.012-1.65Z" transform="translate(-50.12 -15.34)"/></g><g transform="translate(10.942 17.359)"><path d="M26.838,17.648h-15.3a.554.554,0,1,1,0-1.108h15.3a.554.554,0,0,1,.554.554A.547.547,0,0,1,26.838,17.648Z" transform="translate(-10.98 -16.54)" fill="#f1f3f6"/></g><g transform="translate(29.408 17.359)"><path d="M30.8,17.648H27.534a.554.554,0,1,1,0-1.108H30.8a.554.554,0,1,1,0,1.108Z" transform="translate(-26.98 -16.54)" fill="#f1f3f6"/></g><g transform="translate(17.994 28.9)"><ellipse cx="19.067" cy="19.067" rx="19.067" ry="19.067" fill="#6bbeeb"/></g><g transform="translate(35.029 28.9)"><path d="M52.948,45.607A19.065,19.065,0,0,1,33.881,64.674a19.784,19.784,0,0,1-2.031-.1,19.072,19.072,0,0,0,0-37.926,19.785,19.785,0,0,1,2.031-.1A19.058,19.058,0,0,1,52.948,45.607Z" transform="translate(-31.85 -26.54)" fill="#2e87af"/></g><g transform="translate(27.823 37.028)"><path d="M29.535,34.561c.012.519-.427.808-.831,1.05-.439.265-.866.519-1.293.785a.468.468,0,0,0-.1.058,1.132,1.132,0,0,1-1.7-1.039V35.4a1.648,1.648,0,0,1,.612-1.062,3.625,3.625,0,0,1,1.108-.577,2.078,2.078,0,0,1,1.72.012A.935.935,0,0,1,29.535,34.561Z" transform="translate(-25.606 -33.582)" fill="#b9dd53"/></g><g transform="translate(27.858 28.889)"><path d="M42.261,28.03a10.57,10.57,0,0,0-2.17,1.293c-1.016.773-1.881,1.708-2.932,2.435a4.675,4.675,0,0,1-3.578.946c-1.154-.254-2.158-1.154-3.336-1.12a8.517,8.517,0,0,0-2.32.75c-.773.242-1.812.162-2.17-.577a2.195,2.195,0,0,1,.1-1.616c.185-.554.369-1.108.542-1.65a18.929,18.929,0,0,1,8.425-1.962A19.165,19.165,0,0,1,42.261,28.03Z" transform="translate(-25.636 -26.53)" fill="#fff"/></g><g transform="translate(35.018 28.9)"><path d="M41.3,28.029a11.16,11.16,0,0,0-1.9,1.1,18.811,18.811,0,0,0-7.56-2.481,19.56,19.56,0,0,1,2.02-.1A19.006,19.006,0,0,1,41.3,28.029Z" transform="translate(-31.84 -26.54)" fill="#c6d0e0"/></g><g transform="translate(46.904 51.014)"><path d="M51.12,45.7a19.057,19.057,0,0,1-4.859,9.937,7.866,7.866,0,0,0-2.331-1.05,6.215,6.215,0,0,1-1.027-.312,1.293,1.293,0,0,1-.727-.75,1.364,1.364,0,0,1,.508-1.316,7.4,7.4,0,0,1,1.27-.762,1.982,1.982,0,0,0,.97-1.085,3,3,0,0,0-.392-1.8A1.532,1.532,0,0,1,44.7,46.82,1.91,1.91,0,0,1,46,46.6a11.5,11.5,0,0,0,5.125-.9Z" transform="translate(-42.139 -45.7)" fill="#b9dd53"/></g><g transform="translate(48.014 51.014)"><path d="M50.971,45.7a19.057,19.057,0,0,1-4.859,9.937,7.866,7.866,0,0,0-2.331-1.05A6.562,6.562,0,0,1,43.1,54.4a18.777,18.777,0,0,0,3.636-7.791A11.486,11.486,0,0,0,50.971,45.7Z" transform="translate(-43.1 -45.7)" fill="#83960f"/></g><g transform="translate(35.753 33.217)"><path d="M51.3,37.494l-1.939,3.982c-.693,1.42-1.535,3.278-2.989,3.913-1.27.554-2.7-.058-4.074.2a12.984,12.984,0,0,0-3.07,1.212,6.725,6.725,0,0,1-3.174.843,2.729,2.729,0,0,1-2.539-1.789c-.346-1.27.923-2.7.392-3.913-.323-.727-1.5-1.281-1.431-2.078a2.018,2.018,0,0,1,.866-1.235,42.552,42.552,0,0,1,5.944-3.8A27.367,27.367,0,0,0,45.9,30.28,19.366,19.366,0,0,1,51.3,37.494Z" transform="translate(-32.477 -30.28)" fill="#b9dd53"/></g><g transform="translate(47.044 33.229)"><path d="M49.8,37.492l-1.939,3.982c-.219.439-.45.923-.7,1.408A19.1,19.1,0,0,0,42.26,32.125,14.592,14.592,0,0,0,44.4,30.29,19.357,19.357,0,0,1,49.8,37.492Z" transform="translate(-42.26 -30.29)" fill="#83960f"/></g><g transform="translate(18.017 49.086)"><path d="M26.84,53.194A12.214,12.214,0,0,1,25.4,56.357a12.2,12.2,0,0,0-.819,1.708A19.056,19.056,0,0,1,17.11,44.053c.219-.012.427-.023.646-.023a2.384,2.384,0,0,1,2.2.946c.358.669.115,1.5.346,2.216.335,1.05,1.547,1.535,2.632,1.731a6.068,6.068,0,0,1,3.1,1.027,3.389,3.389,0,0,1,.8,3.243Z" transform="translate(-17.11 -44.03)" fill="#b9dd53"/></g><g transform="translate(30.297 63.254)"><path d="M45.5,56.6A19.089,19.089,0,0,1,27.75,58.85a12.649,12.649,0,0,1,1.6-1.339,5.859,5.859,0,0,1,3.843-1.12,16.432,16.432,0,0,1,2.435.635,9.617,9.617,0,0,0,4.79.046,16.022,16.022,0,0,1,3.232-.762A4.768,4.768,0,0,1,45.5,56.6Z" transform="translate(-27.75 -56.305)" fill="#fff"/></g><g transform="translate(35.006 63.257)"><path d="M44.872,56.6a19.008,19.008,0,0,1-11,3.486,19.842,19.842,0,0,1-2.043-.1,18.91,18.91,0,0,0,8.483-3.047,11.792,11.792,0,0,1,2.724-.623A4.972,4.972,0,0,1,44.872,56.6Z" transform="translate(-31.83 -56.307)" fill="#c6d0e0"/></g><g transform="translate(17.428 28.323)"><path d="M36.232,65.3A19.632,19.632,0,1,1,55.865,45.672,19.654,19.654,0,0,1,36.232,65.3Zm0-38.134A18.513,18.513,0,1,0,54.745,45.684,18.533,18.533,0,0,0,36.232,27.171Z" transform="translate(-16.6 -26.04)"/></g><g transform="translate(17.473 48.554)"><path d="M24.662,58.7a.493.493,0,0,1-.335-.115A19.606,19.606,0,0,1,16.64,44.159a.55.55,0,0,1,.531-.589.557.557,0,0,1,.589.531,18.435,18.435,0,0,0,6.683,13.146c.185-.392.381-.762.566-1.085l.2-.358a9.84,9.84,0,0,0,1.189-2.655,2.85,2.85,0,0,0-.635-2.7,4.492,4.492,0,0,0-2.32-.808c-.173-.023-.346-.058-.508-.092-1.662-.3-2.712-1.039-3.059-2.112a4.1,4.1,0,0,1-.15-1.143,2.241,2.241,0,0,0-.162-.981,1.046,1.046,0,0,0-.127-.185.555.555,0,0,1,.808-.762,2.113,2.113,0,0,1,.3.416,3.127,3.127,0,0,1,.289,1.477,3.69,3.69,0,0,0,.092.843c.277.877,1.5,1.223,2.193,1.35.162.035.323.058.485.081a5.533,5.533,0,0,1,2.885,1.073,3.953,3.953,0,0,1,.981,3.774,11.044,11.044,0,0,1-1.3,2.966l-.2.346a10.6,10.6,0,0,0-.773,1.627.53.53,0,0,1-.369.346.453.453,0,0,1-.162.035Z" transform="translate(-16.639 -43.569)"/></g><g transform="translate(31.694 62.756)"><path d="M37.939,57.982a10.171,10.171,0,0,1-2.632-.346c-.254-.069-.519-.15-.773-.231a8.326,8.326,0,0,0-1.581-.392,5.13,5.13,0,0,0-3.139.819.562.562,0,1,1-.589-.958,6.1,6.1,0,0,1,3.832-.97,10,10,0,0,1,1.8.427c.242.081.485.15.727.219a9.145,9.145,0,0,0,4.5.046.56.56,0,0,1,.277,1.085,10.03,10.03,0,0,1-2.424.3Z" transform="translate(-28.96 -55.874)"/></g><g transform="translate(27.308 28.346)"><path d="M34.382,33.412a3.555,3.555,0,0,1-.843-.092,6.236,6.236,0,0,1-1.489-.577,3.9,3.9,0,0,0-1.708-.531,3.989,3.989,0,0,0-1.35.4,8.644,8.644,0,0,1-.819.323,2.3,2.3,0,0,1-2.839-.866,1.679,1.679,0,0,1-.173-.762.557.557,0,0,1,.554-.566.543.543,0,0,1,.566.554.817.817,0,0,0,.058.3c.2.4.935.462,1.5.289a6.98,6.98,0,0,0,.716-.277,4.831,4.831,0,0,1,1.754-.5,4.931,4.931,0,0,1,2.228.635,6.091,6.091,0,0,0,1.247.5,4.274,4.274,0,0,0,3.139-.866,16.312,16.312,0,0,0,1.581-1.3c.427-.381.854-.762,1.327-1.12.369-.277.75-.531,1.143-.773a18.6,18.6,0,0,0-6.059-1.016.554.554,0,0,1,0-1.108,19.484,19.484,0,0,1,7.641,1.547.558.558,0,0,1,.012,1.027,10.277,10.277,0,0,0-2.054,1.223c-.427.335-.831.693-1.258,1.062A17.925,17.925,0,0,1,37.567,32.3a5.944,5.944,0,0,1-3.186,1.108Z" transform="translate(-25.16 -26.06)"/></g><g transform="translate(46.34 51.212)"><path d="M46.324,56.165a.612.612,0,0,1-.312-.092,6.743,6.743,0,0,0-2.158-.969l-.208-.046a4.3,4.3,0,0,1-.923-.3,1.818,1.818,0,0,1-1.016-1.1,1.875,1.875,0,0,1,.681-1.893,5,5,0,0,1,.981-.623l.381-.208a1.362,1.362,0,0,0,.7-.739,2.025,2.025,0,0,0-.254-1.166c-.035-.092-.081-.185-.115-.289a2,2,0,0,1,.335-2.378,2.261,2.261,0,0,1,1.662-.335,10.713,10.713,0,0,0,2.5-.15.548.548,0,0,1,.646.45.554.554,0,0,1-.45.646,11.57,11.57,0,0,1-2.747.162,1.553,1.553,0,0,0-.912.092c-.219.173-.15.692,0,1.108.035.092.069.173.1.265a2.83,2.83,0,0,1,.3,1.893A2.406,2.406,0,0,1,44.3,51.906c-.138.081-.277.162-.427.231a3.728,3.728,0,0,0-.762.473c-.208.185-.4.5-.335.727a.747.747,0,0,0,.416.4,3.246,3.246,0,0,0,.716.219l.219.058a8.166,8.166,0,0,1,2.5,1.131.557.557,0,0,1,.15.773.536.536,0,0,1-.462.242Z" transform="translate(-41.65 -45.872)"/></g><g transform="translate(35.196 34.578)"><path d="M36.34,48.034a1.547,1.547,0,0,1-.231-.012,3.26,3.26,0,0,1-3.047-2.2,3.913,3.913,0,0,1,.242-2.193,2.5,2.5,0,0,0,.173-1.639,2.535,2.535,0,0,0-.566-.658,2.19,2.19,0,0,1-.912-1.7,2.481,2.481,0,0,1,1.073-1.616,38.577,38.577,0,0,1,5.6-3.6l1.062-.6a42.417,42.417,0,0,0,3.693-2.251.568.568,0,0,1,.785.127.579.579,0,0,1-.127.785,41.2,41.2,0,0,1-3.8,2.32l-1.062.6a38.387,38.387,0,0,0-5.436,3.5c-.312.254-.635.554-.669.854-.023.2.3.508.577.785a3.331,3.331,0,0,1,.8,1,3.311,3.311,0,0,1-.138,2.424,3.047,3.047,0,0,0-.231,1.57A2.2,2.2,0,0,0,36.156,46.9a6.306,6.306,0,0,0,2.9-.785l.45-.219a10.714,10.714,0,0,1,2.758-1.039,7.2,7.2,0,0,1,1.927-.023A4.366,4.366,0,0,0,46.22,44.7c1.189-.519,1.974-2.135,2.608-3.439l.9-1.847a.56.56,0,0,1,1,.5l-.9,1.847c-.716,1.466-1.593,3.289-3.174,3.97a5.188,5.188,0,0,1-2.574.231,6.4,6.4,0,0,0-1.627,0,10.419,10.419,0,0,0-2.481.946l-.462.219a7.129,7.129,0,0,1-3.174.912Z" transform="translate(-31.995 -31.459)"/></g><g transform="translate(27.277 36.477)"><path d="M26.815,37.243a1.73,1.73,0,0,1-.935-.277,1.613,1.613,0,0,1-.739-1.523A2.166,2.166,0,0,1,25.949,34a4,4,0,0,1,1.293-.681,2.548,2.548,0,0,1,2.181.069,1.518,1.518,0,0,1,.75,1.247,1.828,1.828,0,0,1-1.1,1.547l-1.293.785s-.069.035-.069.046a2.006,2.006,0,0,1-.9.231Zm-.554-1.72v.023a.494.494,0,0,0,.242.473.621.621,0,0,0,.623.023c.069-.035.092-.058.127-.069l1.258-.762c.358-.219.566-.381.554-.566v-.012a.379.379,0,0,0-.208-.3,1.487,1.487,0,0,0-1.258.035,2.857,2.857,0,0,0-.923.473A1.066,1.066,0,0,0,26.261,35.523Z" transform="translate(-25.133 -33.104)"/></g><g transform="translate(37.351 56.176)"><path d="M52.338,62.889c-3.855,0-11.876-5.956-18.294-11.749a.556.556,0,0,1,.75-.819c9.718,8.795,16.966,12.615,18.351,11.23.7-.7.127-3.532-3.832-9.2a.556.556,0,0,1,.912-.635c2.689,3.855,5.505,8.818,3.7,10.63a2.257,2.257,0,0,1-1.593.542Z" transform="translate(-33.862 -50.172)"/></g><g transform="translate(16.125 27.023)"><path d="M32.332,50.486a.57.57,0,0,1-.392-.162,105.692,105.692,0,0,1-13-15.4c-3.255-4.928-4.224-8.1-2.9-9.441,1.177-1.177,3.832-.542,7.871,1.9a.562.562,0,1,1-.589.958c-3.947-2.389-5.944-2.632-6.51-2.078-.635.635-.208,3.116,3.035,8.033A103.421,103.421,0,0,0,32.713,49.528a.564.564,0,0,1,0,.8.5.5,0,0,1-.381.162Z" transform="translate(-15.471 -24.913)"/></g><g transform="translate(35.606 54.431)"><path d="M34.647,53.254a2.3,2.3,0,1,1,2.3-2.3A2.3,2.3,0,0,1,34.647,53.254Zm0-3.486a1.177,1.177,0,1,0,1.177,1.177A1.168,1.168,0,0,0,34.647,49.768Z" transform="translate(-32.35 -48.66)"/></g><g transform="translate(54.581 61.506)"><path d="M52.276,56.533a1.743,1.743,0,1,1-1.743-1.743A1.741,1.741,0,0,1,52.276,56.533Z" transform="translate(-48.79 -54.79)" fill="#ff9a9a"/></g><g transform="translate(54.662 61.598)"><path d="M52.253,56.52a1.742,1.742,0,0,1-3.393.554,1.738,1.738,0,0,0,2.2-2.2A1.73,1.73,0,0,1,52.253,56.52Z" transform="translate(-48.86 -54.87)" fill="#d86666"/></g><g transform="translate(54.027 60.963)"><path d="M50.607,58.914a2.3,2.3,0,1,1,2.3-2.3A2.3,2.3,0,0,1,50.607,58.914Zm0-3.486a1.177,1.177,0,1,0,1.177,1.177A1.182,1.182,0,0,0,50.607,55.428Z" transform="translate(-48.31 -54.32)"/></g><g transform="translate(36.16 54.973)"><path d="M36.316,50.873a1.743,1.743,0,1,1-1.743-1.743A1.741,1.741,0,0,1,36.316,50.873Z" transform="translate(-32.83 -49.13)" fill="#ff9a9a"/></g><g transform="translate(36.253 55.066)"><path d="M36.3,50.86a1.742,1.742,0,0,1-3.393.554,1.738,1.738,0,0,0,2.2-2.2A1.745,1.745,0,0,1,36.3,50.86Z" transform="translate(-32.91 -49.21)" fill="#d86666"/></g><g transform="translate(35.606 54.431)"><path d="M34.647,53.254a2.3,2.3,0,1,1,2.3-2.3A2.3,2.3,0,0,1,34.647,53.254Zm0-3.486a1.177,1.177,0,1,0,1.177,1.177A1.168,1.168,0,0,0,34.647,49.768Z" transform="translate(-32.35 -48.66)"/></g><g transform="translate(15.72 30.389)"><path d="M18.606,29.573a1.743,1.743,0,1,1-1.743-1.743A1.741,1.741,0,0,1,18.606,29.573Z" transform="translate(-15.12 -27.83)" fill="#ff9a9a"/></g><g transform="translate(15.801 30.482)"><path d="M18.583,29.56a1.742,1.742,0,0,1-3.393.554,1.738,1.738,0,0,0,2.2-2.2A1.719,1.719,0,0,1,18.583,29.56Z" transform="translate(-15.19 -27.91)" fill="#d86666"/></g><g transform="translate(15.166 29.835)"><path d="M16.937,31.944a2.3,2.3,0,1,1,2.3-2.3A2.3,2.3,0,0,1,16.937,31.944Zm0-3.486a1.177,1.177,0,1,0,1.177,1.177A1.182,1.182,0,0,0,16.937,28.458Z" transform="translate(-14.64 -27.35)"/></g><g transform="translate(56.009 49.349)"><path d="M53.793,48.589a.57.57,0,0,1-.392-.162l-3.209-3.209a.563.563,0,1,1,.8-.8L54.2,47.631a.564.564,0,0,1,0,.8A.6.6,0,0,1,53.793,48.589Z" transform="translate(-50.028 -44.257)"/></g><g transform="translate(55.794 49.121)"><path d="M51.283,48.157a.554.554,0,0,1-.531-.4l-.889-2.978A.577.577,0,0,1,50,44.222a.551.551,0,0,1,.554-.139l2.966.877a.559.559,0,1,1-.312,1.073l-1.974-.589.589,1.985a.547.547,0,0,1-.381.693A.453.453,0,0,1,51.283,48.157Z" transform="translate(-49.841 -44.059)"/></g><g transform="translate(10.942 61.16)"><path d="M11.534,57.7a.554.554,0,0,1-.554-.554v-2.1a.554.554,0,0,1,1.108,0v2.1A.547.547,0,0,1,11.534,57.7Z" transform="translate(-10.98 -54.49)" fill="#fff"/></g><g transform="translate(10.942 48.983)"><path d="M11.534,53.981a.554.554,0,0,1-.554-.554V44.494a.554.554,0,1,1,1.108,0v8.933a.547.547,0,0,1-.554.554Z" transform="translate(-10.98 -43.94)" fill="#fff"/></g><g transform="translate(53.946 26.165)"><path d="M53.872,25.278H48.794a.554.554,0,1,1,0-1.108h5.078a.554.554,0,0,1,.554.554A.547.547,0,0,1,53.872,25.278Z" transform="translate(-48.24 -24.17)"/></g><g transform="translate(61.321 29.004)"><path d="M56.523,27.738H55.184a.554.554,0,0,1-.554-.554.562.562,0,0,1,.554-.554h1.339a.554.554,0,0,1,0,1.108Z" transform="translate(-54.63 -26.63)"/></g><g transform="translate(53.958 29.004)"><path d="M54,27.738H48.8a.554.554,0,0,1-.554-.554.562.562,0,0,1,.554-.554H54a.554.554,0,0,1,.554.554A.562.562,0,0,1,54,27.738Z" transform="translate(-48.25 -26.63)"/></g><g transform="translate(55.169 3.024)"><path d="M49.854,11.01a.554.554,0,0,1-.554-.554V4.674a.554.554,0,0,1,1.108,0v5.771A.557.557,0,0,1,49.854,11.01Z" transform="translate(-49.3 -4.12)"/></g><g transform="translate(53.45 0.566)"><ellipse cx="2.274" cy="2.274" rx="2.274" ry="2.274" fill="#ffca6b"/></g><g transform="translate(53.623 0.739)"><path d="M52.334,4.241a2.29,2.29,0,0,1-2.285,2.285A2.266,2.266,0,0,1,47.96,5.141a2.22,2.22,0,0,0,.889.173,2.281,2.281,0,0,0,2.274-2.285,2.115,2.115,0,0,0-.185-.889A2.262,2.262,0,0,1,52.334,4.241Z" transform="translate(-47.96 -2.14)" fill="#ef8f06"/></g><g transform="translate(52.884 0)"><path d="M50.159,7.179A2.839,2.839,0,1,1,53,4.339,2.837,2.837,0,0,1,50.159,7.179Zm0-4.559a1.72,1.72,0,1,0,1.72,1.72,1.724,1.724,0,0,0-1.72-1.72Z" transform="translate(-47.32 -1.5)"/></g><g transform="translate(32.432 5.251)"><path d="M30.154,14.071a.554.554,0,0,1-.554-.554V6.6a.554.554,0,0,1,1.108,0v6.9A.55.55,0,0,1,30.154,14.071Z" transform="translate(-29.6 -6.05)"/></g><g transform="translate(30.713 2.805)"><ellipse cx="2.274" cy="2.274" rx="2.274" ry="2.274" fill="#564dc6"/></g><g transform="translate(30.897 2.978)"><path d="M32.644,6.181a2.29,2.29,0,0,1-2.285,2.285A2.266,2.266,0,0,1,28.27,7.081a2.22,2.22,0,0,0,.889.173,2.281,2.281,0,0,0,2.274-2.285,2.115,2.115,0,0,0-.185-.889A2.28,2.28,0,0,1,32.644,6.181Z" transform="translate(-28.27 -4.08)" fill="#2e2780"/></g><g transform="translate(30.147 2.239)"><path d="M30.459,9.119A2.839,2.839,0,1,1,33.3,6.279,2.837,2.837,0,0,1,30.459,9.119Zm0-4.559a1.72,1.72,0,1,0,1.72,1.72A1.724,1.724,0,0,0,30.459,4.56Z" transform="translate(-27.62 -3.44)"/></g></svg>