<svg xmlns="http://www.w3.org/2000/svg" xmlns:xlink="http://www.w3.org/1999/xlink" width="94.877" height="94.58" viewBox="0 0 94.877 94.58"><defs><clipPath id="a"><rect width="94.876" height="94.58" fill="none"/></clipPath><filter id="c" x="-3.568" y="1.756" width="92.121" height="92.122" filterUnits="userSpaceOnUse"><feOffset dy="3" input="SourceAlpha"/><feGaussianBlur stdDeviation="3" result="d"/><feFlood flood-opacity="0.161"/><feComposite operator="in" in2="d"/><feComposite in="SourceGraphic"/></filter><clipPath id="f"><rect width="94.876" height="94.58" fill="#a01515"/></clipPath><linearGradient id="g" x1="-0.257" y1="1.387" x2="-0.235" y2="1.387" gradientUnits="objectBoundingBox"><stop offset="0" stop-color="#92d14f"/><stop offset="1" stop-color="#538834"/></linearGradient><clipPath id="h"><rect width="35.73" height="35.381" fill="none"/></clipPath></defs><g transform="translate(20052.084 12287.047)"><g transform="translate(-20052.084 -12287.047)"><g clip-path="url(#a)"><g clip-path="url(#a)"><g transform="matrix(1, 0, 0, 1, 0, 0)" filter="url(#c)"><path d="M78.518,43.339A37.061,37.061,0,1,1,41.457,6.278,37.06,37.06,0,0,1,78.518,43.339" transform="translate(1.03 1.48)" fill="#f2f2f2"/></g><path d="M67.791,41.622a28.05,28.05,0,1,1-28.05-28.05,28.051,28.051,0,0,1,28.05,28.05" transform="translate(2.751 3.194)" fill="#92d14f"/><path d="M67.791,41.622h0a28.05,28.05,0,1,1-28.05-28.05,28.051,28.051,0,0,1,28.05,28.05h0a28.05,28.05,0,1,0-28.05,28.05,28.051,28.051,0,0,0,28.05-28.05Z" transform="translate(2.751 3.194)" fill="url(#g)"/></g></g></g><g transform="translate(-20027.617 -12259.718)"><g transform="translate(0 0)" clip-path="url(#h)"><path d="M42.179,22.713l.3-9.4a1.949,1.949,0,0,1,.67-1.507,2.2,2.2,0,0,1,3.72,1.567V27.535l-10,9.162v2.351H31.265V31.211L29.74,30.006l9.513-7.534a2.124,2.124,0,0,1,2.56-.06c.122.121.244.181.366.3" transform="translate(-11.814 -4.449)" fill="#eabd8c"/><path d="M26.69,46.44a.8.8,0,0,1-.793-.784V37.82a.833.833,0,0,1,.3-.6l11.1-8.74a2.868,2.868,0,0,1,3.536-.06.815.815,0,0,1,.122,1.085.838.838,0,0,1-1.1.121,1.293,1.293,0,0,0-1.585,0L27.482,38.182v7.474a.8.8,0,0,1-.792.784" transform="translate(-10.288 -11.058)"/><path d="M8.977,22.511a2,2,0,0,0-2.866.3l-.3-9.4a1.949,1.949,0,0,0-.67-1.507,2.179,2.179,0,0,0-1.524-.6,2.173,2.173,0,0,0-2.2,2.17V27.635l10,9.162v2.351h8.659V31.311c-.488-.362-10.305-8.2-11.1-8.8" transform="translate(-0.563 -4.489)" fill="#ffd8a8"/><path d="M4.294,1.2A1.151,1.151,0,0,1,5.453,2.345,1.068,1.068,0,0,1,4.294,3.43,1.115,1.115,0,0,1,3.136,2.285,1.1,1.1,0,0,1,4.294,1.2" transform="translate(-1.246 -0.477)" fill="#74829c"/><path d="M4.762,49.9a1.5,1.5,0,0,1,1.524,1.507,1.524,1.524,0,0,1-3.048,0A1.5,1.5,0,0,1,4.762,49.9" transform="translate(-1.286 -19.823)" fill="#74829c"/><path d="M53.659,49.9a1.145,1.145,0,1,1,0,2.29,1.145,1.145,0,1,1,0-2.29" transform="translate(-20.856 -19.823)" fill="#74829c"/><path d="M29.64,9.12h0a7.725,7.725,0,0,1,1.342-1.808c2.134-2.11,5.243-2.773,8.6-2.23,1.1,6.329-2.683,11.03-8.9,10.91A10.4,10.4,0,0,0,29.64,9.12" transform="translate(-11.774 -1.947)" fill="#536949"/><path d="M24.083,16.117c-7.2,1.206-12.073-3.617-10.854-10.729C20.424,4.243,25.241,9,24.083,16.117" transform="translate(-5.181 -2.073)" fill="#80af52"/><path d="M55.239,4.142c0,.06.061.181.061.241a.786.786,0,0,1-1.525.241c0-.06-.061-.181-.061-.241a.758.758,0,0,1,.549-.723c.06,0,.182-.06.244-.06a.97.97,0,0,1,.732.542" transform="translate(-21.338 -1.43)"/><path d="M43.809,24.142c0,.06.061.181.061.241a.786.786,0,0,1-1.525.241c0-.06-.06-.181-.06-.241a.758.758,0,0,1,.548-.723c.061,0,.184-.06.244-.06a.8.8,0,0,1,.732.542" transform="translate(-16.798 -9.375)"/><rect width="1.524" height="1.507" transform="translate(17.926 16.515)"/><path d="M31.164,35.442c0,.06.061.181.061.241a.786.786,0,0,1-1.525.241c0-.06-.06-.181-.06-.241a.758.758,0,0,1,.549-.723c.061,0,.183-.06.244-.06a.674.674,0,0,1,.732.542" transform="translate(-11.774 -13.864)"/><path d="M29.95,2.942c0,.06.061.181.061.241a.786.786,0,0,1-1.525.241c0-.06-.06-.181-.06-.241a.758.758,0,0,1,.549-.723c.061,0,.183-.06.244-.06a.765.765,0,0,1,.732.542" transform="translate(-11.292 -0.953)"/><rect width="4.573" height="1.507" transform="translate(12.621 16.515)"/><path d="M13.461,20.442c0,.06.061.181.061.241a.759.759,0,0,1-.549.723A.751.751,0,0,1,12,20.925c0-.06-.061-.181-.061-.241a.758.758,0,0,1,.549-.723c.061,0,.183-.06.244-.06a.674.674,0,0,1,.732.542" transform="translate(-4.742 -7.905)"/><path d="M3.345,44.142c0,.06.061.181.061.241a.759.759,0,0,1-.549.723.752.752,0,0,1-.976-.482c0-.06-.061-.181-.061-.241a.759.759,0,0,1,.549-.723c.061,0,.183-.06.244-.06a.8.8,0,0,1,.732.542" transform="translate(-0.723 -17.32)"/><path d="M39.969,38.186a.665.665,0,0,1-.549-.241.761.761,0,0,1,.061-1.085l5.732-5.184a1.208,1.208,0,0,0,.122-1.688l-.183-.181a.815.815,0,0,1-.122-1.085.839.839,0,0,1,1.1-.121,2.832,2.832,0,0,1,.427.422,2.7,2.7,0,0,1-.3,3.737l-5.732,5.184a.75.75,0,0,1-.549.241" transform="translate(-15.58 -11.303)"/><path d="M41.054,39.354h0a.8.8,0,0,1-.793-.784V36.22a.651.651,0,0,1,.244-.542l9.756-8.921V12.893a1.372,1.372,0,0,0-1.4-1.386,1.45,1.45,0,0,0-1.463,1.447l-.3,9.4a.763.763,0,0,1-1.525-.06l.3-9.4a2.853,2.853,0,0,1,.854-2.049,2.939,2.939,0,0,1,5,2.049V27.058a.651.651,0,0,1-.244.542l-9.756,8.921V38.57a.67.67,0,0,1-.67.784" transform="translate(-15.994 -3.972)"/><path d="M33.983,14.217a.747.747,0,0,1-.549-.241.758.758,0,0,1,0-1.085L37.7,8.551a.779.779,0,0,1,1.1,0,.758.758,0,0,1,0,1.085l-4.268,4.34a.6.6,0,0,1-.549.241" transform="translate(-13.191 -3.307)"/><path d="M31.15,18.885a.749.749,0,0,1-.549-.241.758.758,0,0,1,0-1.085l1.768-1.808a.779.779,0,0,1,1.1,0,.758.758,0,0,1,0,1.085L31.7,18.644a.749.749,0,0,1-.549.241" transform="translate(-12.065 -6.167)"/><path d="M37.245,13.563a.724.724,0,0,1-.732-.663.752.752,0,0,1,.67-.844l2.317-.362a.759.759,0,1,1,.183,1.507l-2.317.362Z" transform="translate(-14.502 -4.643)"/><path d="M33.973,16.9a.8.8,0,0,1-.793-.784.727.727,0,0,1,.671-.723l2.195-.3a.759.759,0,1,1,.183,1.507l-2.2.3Z" transform="translate(-13.181 -5.993)"/><path d="M31.18,20.027a.7.7,0,0,1-.732-.723.751.751,0,0,1,.732-.784l1.951-.121a.754.754,0,1,1,.061,1.507Z" transform="translate(-12.095 -7.309)"/><path d="M34.878,14.613h-.122a.751.751,0,0,1-.67-.844l.3-2.411a.768.768,0,0,1,1.525.181l-.3,2.411a.689.689,0,0,1-.732.663" transform="translate(-13.537 -4.245)"/><path d="M25.462,18.294a.75.75,0,0,1-.549-.241l-8.17-8.017a.758.758,0,0,1,0-1.085.779.779,0,0,1,1.1,0l8.11,8.017a.759.759,0,0,1,0,1.085.557.557,0,0,1-.488.241" transform="translate(-6.56 -3.466)"/><path d="M19.654,13.9h-.122l-2.378-.3a.759.759,0,1,1,.183-1.507l2.378.362a.752.752,0,0,1,.67.844.722.722,0,0,1-.732.6" transform="translate(-6.545 -4.801)"/><path d="M23.032,17.263h-.122L20.594,16.9a.759.759,0,1,1,.183-1.507l2.378.362a.752.752,0,0,1,.671.844.842.842,0,0,1-.793.663" transform="translate(-7.911 -6.112)"/><path d="M26.431,20.563H26.31L23.932,20.2a.759.759,0,1,1,.183-1.507l2.378.362a.752.752,0,0,1,.67.844.724.724,0,0,1-.732.663" transform="translate(-9.237 -7.423)"/><path d="M23.247,14.853a.776.776,0,0,1-.732-.663l-.366-2.351a.768.768,0,0,1,1.524-.181l.366,2.351a.753.753,0,0,1-.671.844Z" transform="translate(-8.796 -4.365)"/><path d="M26.585,18.153a.778.778,0,0,1-.732-.663l-.365-2.351a.767.767,0,0,1,1.524-.181l.366,2.351a.752.752,0,0,1-.671.844Z" transform="translate(-10.122 -5.675)"/><path d="M30.361,16.292h-.183a.751.751,0,0,1-.732-.784.737.737,0,0,1,.732-.723,8.1,8.1,0,0,0,6.1-2.23A8.493,8.493,0,0,0,38.41,5.262a8.723,8.723,0,0,0-7.378,2.11A6.351,6.351,0,0,0,29.813,9a.786.786,0,0,1-1.037.3.769.769,0,0,1-.3-1.025,9.506,9.506,0,0,1,1.463-1.929c2.256-2.23,5.487-3.074,9.269-2.471a.779.779,0,0,1,.609.6c.61,3.677-.244,6.932-2.5,9.162a9.578,9.578,0,0,1-6.951,2.652" transform="translate(-11.277 -1.464)"/><path d="M21.323,16.6a9.724,9.724,0,0,1-7.012-2.652c-2.256-2.23-3.11-5.425-2.5-9.162a.78.78,0,0,1,.61-.6A14.817,14.817,0,0,1,14.676,4a9.724,9.724,0,0,1,7.012,2.652A7.472,7.472,0,0,1,23.03,8.4v.06a10.159,10.159,0,0,1,1.28,5.123,13.776,13.776,0,0,1-.183,2.23.78.78,0,0,1-.61.6,12.941,12.941,0,0,1-2.195.181M13.274,5.567a8.49,8.49,0,0,0,2.134,7.293,8.147,8.147,0,0,0,5.915,2.23,11.977,11.977,0,0,0,1.463-.121,11.591,11.591,0,0,0,.122-1.447,8.581,8.581,0,0,0-1.1-4.4,6.5,6.5,0,0,0-1.1-1.447A8.148,8.148,0,0,0,14.8,5.447c-.488.06-.976.06-1.524.121" transform="translate(-4.616 -1.589)"/><path d="M14.316,38.225a.7.7,0,0,1-.488-.181L8.1,32.861a2.7,2.7,0,0,1-.3-3.737,2.8,2.8,0,0,1,.427-.422.854.854,0,0,1,1.1.121.83.83,0,0,1-.122,1.085l-.183.181a1.272,1.272,0,0,0,.061,1.688L14.8,36.96a.821.821,0,0,1,.06,1.085.989.989,0,0,1-.549.181" transform="translate(-2.853 -11.343)"/><path d="M10.792,39.314A.843.843,0,0,1,10,38.591V36.542L.244,27.621A.65.65,0,0,1,0,27.078V12.793A2.911,2.911,0,0,1,2.926,9.9,2.921,2.921,0,0,1,5,10.744a2.855,2.855,0,0,1,.853,2.049l.3,9.4a.763.763,0,0,1-1.524.06l-.3-9.4A1.4,1.4,0,0,0,3.9,11.829a1.478,1.478,0,0,0-1.036-.422,1.372,1.372,0,0,0-1.4,1.386V26.656l9.756,8.921a.65.65,0,0,1,.244.542V38.47c.122.482-.244.784-.67.844" transform="translate(0 -3.933)"/><path d="M22.808,46.44a.8.8,0,0,1-.793-.784V38.182L11.284,29.623a1.293,1.293,0,0,0-1.585,0A.854.854,0,0,1,8.6,29.5a.829.829,0,0,1,.122-1.085,2.868,2.868,0,0,1,3.536.06L23.3,37.218a.74.74,0,0,1,.3.6v7.836a.8.8,0,0,1-.793.784" transform="translate(-3.357 -11.058)"/><path d="M32.336,57.667H14.044a.784.784,0,1,1,0-1.567H32.336a.784.784,0,1,1,0,1.567" transform="translate(-5.264 -22.285)"/><path d="M4.239,53.181a2.291,2.291,0,1,1,2.318-2.29,2.343,2.343,0,0,1-2.318,2.29m0-3.014a.784.784,0,1,0,.793.784.844.844,0,0,0-.793-.784" transform="translate(-0.764 -19.306)"/><path d="M53.177,52.437a1.869,1.869,0,1,1,1.891-1.869,1.889,1.889,0,0,1-1.891,1.869m0-2.23a.362.362,0,1,0,.366.362.349.349,0,0,0-.366-.362" transform="translate(-20.374 -19.346)"/><path d="M3.812,3.737a1.889,1.889,0,0,1-1.89-1.869,1.89,1.89,0,0,1,3.78,0,1.889,1.889,0,0,1-1.89,1.869m0-2.29a.39.39,0,0,0-.365.362.39.39,0,0,0,.365.362.391.391,0,0,0,.366-.362.35.35,0,0,0-.366-.362" transform="translate(-0.764 0)"/></g></g></g></svg>