<svg xmlns="http://www.w3.org/2000/svg" xmlns:xlink="http://www.w3.org/1999/xlink" width="126.689" height="127.581" viewBox="0 0 126.689 127.581"><defs><clipPath id="a"><rect width="126.689" height="127.581" fill="none"/></clipPath></defs><g clip-path="url(#a)"><path d="M41.182,122.67a61.924,61.924,0,0,1-20.058-11.944C-15.161,78.611-2.618,19.205,42.835,3.554c51-17.562,99.007,33.068,79.346,83.183-6.414,16.35-20.277,30.119-36.878,35.933V100.784a63.12,63.12,0,0,0,6.361-4.626c31.027-27.221,10.277-78.165-30.871-76.039-26.46,1.367-45.968,27.335-39.756,53.2a44.492,44.492,0,0,0,20.144,27.466Z" transform="translate(0 0.001)" fill="#42ab4b"/><path d="M259.376,510.418l30.135-.048a4.007,4.007,0,0,1,3.748,3.228l0,31.926a3.828,3.828,0,0,1-2.527,3.228c-10.37.389-20.829.048-31.232.173a3.814,3.814,0,0,1-3.4-3.575l.009-31.4a3.929,3.929,0,0,1,3.266-3.535m12.25,22.105c-.343.236-1.513-1.459-1.823-1.748a11.012,11.012,0,0,0-3.863-2.082c-1.462-.1-3.02,2.744-2.342,3.928.314.548,2.124,1.3,2.783,1.75a20.54,20.54,0,0,1,1.668,1.3c1.16,1,2.616,3.149,3.666,3.833a1.865,1.865,0,0,0,1.788.215c.944-.387,2.487-4.669,3.089-5.8,2.612-4.926,6.343-9.2,10.122-13.25.285-.615-.319-2.216-1.134-2.015-1.333.328-4.877,3.1-6.019,4.107a41.478,41.478,0,0,0-7.934,9.77" transform="translate(-211.438 -421.364)" fill="#42ab4c"/><path d="M421.929,299.35c3.736-.452,7.4,1.252,7.867,5.289a60.355,60.355,0,0,1,.017,9.048c-.744,7.449-12.468,7.47-13.231.155-.209-2-.257-8.924.319-10.625a5.833,5.833,0,0,1,5.028-3.867m.341,3.48a2.347,2.347,0,0,0-1.683,1.98,59.149,59.149,0,0,0-.019,8.883c.34,2.828,4.69,2.905,5.2.13a58.478,58.478,0,0,0,.044-8.858c-.22-1.834-1.894-2.432-3.538-2.135" transform="translate(-343.813 -247.086)" fill="#303640"/><path d="M331.594,299.256c2.828-.384,6.044.484,7.345,3.2,1.064,2.221,1.057,10.869.106,13.143-2.217,5.3-11.85,4.6-12.627-1.321a63.916,63.916,0,0,1,.108-10.675,5.857,5.857,0,0,1,5.067-4.35m1.221,3.315a2.517,2.517,0,0,0-2.532,2.35,50.715,50.715,0,0,0-.048,7.986c.344,3.977,4.882,3.576,5.371.65a52.08,52.08,0,0,0,.048-8.161c-.142-1.654-1.053-2.895-2.838-2.825" transform="translate(-269.353 -246.996)" fill="#30353f"/><path d="M236.818,320.132a5.377,5.377,0,0,0-2,.009c-1.63,0-4.987.249-6.384-.086-.236-.056-.577-.129-.663-.383a5.915,5.915,0,0,1,.469-3.494l4.723-10.408c.341-.379,1.673-.1,2.2-.1.4,0,1.54-.382,1.81.007.347.5-2.239,5.438-2.631,6.317-.658,1.477-1.2,3.015-1.887,4.478h4.36c.058-1.562-.079-3.149,0-4.709.272-.072.261-.641,0-.7a.414.414,0,0,1,.165-.263,9.967,9.967,0,0,1,3.589.085c.483.478.206,4.582.257,5.585a2.375,2.375,0,0,0,0,.348c.153.108,1.363-.184,1.571.524a16.072,16.072,0,0,1,0,2.267c-.284.114-1.24.106-1.371.2-.089.066,0,.256-.024.319-.382.945.132,3.54-.521,3.926a16.722,16.722,0,0,1-3.228.083c-.233-.042-.377-.1-.437-.347.289-.181.174-.662.177-.957.005-.475.12-2.592-.177-2.706" transform="translate(-187.963 -252.222)" fill="#2f353f"/><path d="M506.28,319.464V303.943l-3.139.349v-2.965c1.006-.107,2.338-1.068,3.237-1.21a19.426,19.426,0,0,1,3.3-.006c.191.037.615.3.615.431v18.486a2,2,0,0,1-.349.523,11.4,11.4,0,0,1-3.662-.087" transform="translate(-415.395 -247.717)" fill="#2e343e"/><path d="M177.28,303.953l-3.139.349v-2.7c0-.254,2.968-1.405,3.416-1.467a17.429,17.429,0,0,1,3.119-.011c.191.037.615.3.615.431v18.66a1.557,1.557,0,0,1-.351.346c-.45.21-3.66.248-3.66-.346Z" transform="translate(-143.772 -247.726)" fill="#30353f"/><path d="M318.935,193.535c1.764-.185,4.064.4,5.069,1.984.307.483.927,2.221.388,2.6a4.331,4.331,0,0,1-1.643.052c-.432-.142-.224-.9-.38-1.364-.746-2.226-6.108-1.891-5.238.872.711,2.26,7.585,2.088,7.58,6.164-.007,5.276-10.352,5.082-9.76-.333.11-1.007,1.792-.689,1.907-.32.177.567-.129.828.374,1.545,1.345,1.919,5.881,1.438,5.338-1.141-.479-2.278-6.561-2.372-7.312-5.257-.731-2.809,1-4.521,3.678-4.8" transform="translate(-260.004 -159.756)" fill="#323840"/><path d="M385.955,193.619a4.945,4.945,0,0,1,4.895,2.676c.542,1.255.517,5.97.366,7.477-.524,5.222-9.281,5.7-9.77-.515-.3-3.852-.573-9.313,4.509-9.639m.161,1.74a3.17,3.17,0,0,0-2.7,2.353,34.282,34.282,0,0,0-.026,5.873c.406,2.986,5.259,3.489,5.836.112.22-1.284.235-5.643-.237-6.757a2.9,2.9,0,0,0-2.868-1.58" transform="translate(-314.809 -159.844)" fill="#30363f"/><path d="M290.885,194.5l.174.174V207.49c.043.711-1.919.5-1.919.174v-13.08c0-.62,1.313-.655,1.744-.087" transform="translate(-238.716 -160.245)" fill="#373b43"/><path d="M308.542,440.1a2.062,2.062,0,0,1,1.175,2.745c-.191.469-.921.775-.925.841-.028.484,1.523,2.407,1.231,2.691-.4-.047-1.054.124-1.4-.084-.558-.339-.8-2.671-2.09-2.183v2.269h-1.4V440.1c.977.146,2.505-.2,3.4,0m-.3,1.262c-.318-.32-1.258-.195-1.7-.217V442.9c.977.4,2.756-.471,1.7-1.529" transform="translate(-251.926 -363.3)" fill="#343941"/><path d="M451.141,446.683v-6.278h2.878a9.655,9.655,0,0,1,1.223.7c1.278,1.134,1.07,4.212-.451,5.134a11.022,11.022,0,0,1-1.121.449Zm1.4-1.046c2.942.38,2.9-4.778,0-4.186Z" transform="translate(-372.464 -363.6)" fill="#343941"/><path d="M427.327,440.405v1.046h-2.79v1.4h2.442v1.046h-2.442v1.57h2.79v1.221h-4.185v-6.278Z" transform="translate(-349.347 -363.601)" fill="#373b43"/><path d="M281.327,440.405v1.046h-2.79v1.4l2.271.1,0,.947-2.269,0v1.57h2.79v1.221h-4.185v-6.278Z" transform="translate(-228.809 -363.601)" fill="#373b43"/><path d="M247.841,441.631c-.266-.046-1.313.073-1.389-.007-.131-.139.225-1.14-1.142-1.055-1.906.118-1.442,5.278.68,4.008.671-.4.341-1.409,1.851-1.027.2,1.888-1.562,2.526-3.186,2.226-2.159-.4-2.4-3.965-1.323-5.426,1.3-1.764,4.645-1.083,4.509,1.282" transform="translate(-200.38 -362.733)" fill="#373b43"/><path d="M385.327,440.405v1.046h-2.79v1.57h2.442v1.046h-2.442v2.616h-1.4v-6.278Z" transform="translate(-314.672 -363.601)" fill="#373b43"/><path d="M339.195,440.405v1.047h-1.919v5.232h-1.4v-5.232h-1.745v-1.047Z" transform="translate(-275.864 -363.601)" fill="#373b43"/><path d="M368.536,445.8h-1.4v-6.191c0-.365,1.4-.366,1.4,0Z" transform="translate(-303.113 -362.715)" fill="#474b52"/><rect width="1.395" height="6.278" transform="translate(71.353 76.805)" fill="#373b43"/><path d="M304.665,369.126c-.208-.708-1.418-.416-1.571-.524a2.373,2.373,0,0,1,0-.348c1.118.053,1.477-.384,1.57.872" transform="translate(-250.229 -304.006)" fill="#1d232a"/><path d="M279.806,393.067c-.221-.928.161-2.632,0-3.662.3.114.182,2.231.177,2.706,0,.295.111.776-.177.957" transform="translate(-230.951 -321.494)" fill="#1d232a"/><path d="M305.461,386.4c-.063.689-.816.49-1.4.523.025-.063-.065-.253.024-.319.131-.1,1.087-.09,1.371-.2" transform="translate(-251.024 -319.018)" fill="#1d232a"/><path d="M280.058,338.1a4.84,4.84,0,0,1,0-.7c.261.056.272.625,0,.7" transform="translate(-231.203 -278.563)" fill="#1d232a"/><path d="M299.315,196.579l-.174-.174c.042.055.162.112.174.174" transform="translate(-246.972 -162.153)" fill="#1d232a"/><path d="M306.344,571.625a41.476,41.476,0,0,1,7.934-9.77c1.142-1.012,4.686-3.779,6.019-4.107.815-.2,1.42,1.4,1.134,2.015-3.778,4.051-7.51,8.324-10.122,13.25-.6,1.135-2.145,5.417-3.089,5.8a1.865,1.865,0,0,1-1.788-.215c-1.05-.684-2.506-2.833-3.666-3.833a20.567,20.567,0,0,0-1.668-1.3c-.659-.449-2.469-1.2-2.783-1.75-.679-1.184.88-4.026,2.342-3.928a11.013,11.013,0,0,1,3.863,2.082c.31.289,1.48,1.984,1.823,1.748" transform="translate(-246.156 -460.465)" fill="#f7fcf7"/><path d="M441.075,319.3c1.644-.3,3.317.3,3.538,2.135a58.478,58.478,0,0,1-.044,8.858c-.506,2.775-4.855,2.7-5.2-.13a59.149,59.149,0,0,1,.019-8.883,2.347,2.347,0,0,1,1.683-1.98" transform="translate(-362.618 -263.555)" fill="#fcfcfc"/><path d="M351.057,318.66c1.785-.07,2.7,1.171,2.838,2.825a52.08,52.08,0,0,1-.048,8.161c-.489,2.927-5.027,3.327-5.371-.65a50.715,50.715,0,0,1,.048-7.986,2.517,2.517,0,0,1,2.532-2.35" transform="translate(-287.593 -263.084)" fill="#fafafa"/><path d="M395.426,203.622a2.9,2.9,0,0,1,2.868,1.58c.472,1.114.457,5.473.237,6.757-.577,3.377-5.43,2.874-5.836-.112a34.282,34.282,0,0,1,.026-5.873,3.17,3.17,0,0,1,2.7-2.353" transform="translate(-324.118 -168.106)" fill="#fafafa"/><path d="M314.839,446.587c1.053,1.058-.726,1.931-1.7,1.529V446.37c.445.022,1.385-.1,1.7.217" transform="translate(-258.526 -368.52)" fill="#fafafa"/><path d="M459.141,450.366v-4.186c2.9-.592,2.942,4.566,0,4.186" transform="translate(-379.069 -368.329)" fill="#f7fcf7"/></g></svg>