<svg xmlns="http://www.w3.org/2000/svg" xmlns:xlink="http://www.w3.org/1999/xlink" width="94.877" height="94.58" viewBox="0 0 94.877 94.58"><defs><clipPath id="a"><rect width="94.876" height="94.58" fill="none"/></clipPath><filter id="c" x="-3.568" y="1.756" width="92.121" height="92.122" filterUnits="userSpaceOnUse"><feOffset dy="3" input="SourceAlpha"/><feGaussianBlur stdDeviation="3" result="d"/><feFlood flood-opacity="0.161"/><feComposite operator="in" in2="d"/><feComposite in="SourceGraphic"/></filter><clipPath id="f"><rect width="94.876" height="94.58" fill="#a01515"/></clipPath><linearGradient id="g" x1="-0.257" y1="1.387" x2="-0.235" y2="1.387" gradientUnits="objectBoundingBox"><stop offset="0" stop-color="#92d14f"/><stop offset="1" stop-color="#538834"/></linearGradient><clipPath id="h"><rect width="34.758" height="34.242" fill="none"/></clipPath></defs><g transform="translate(20052.084 12287.047)"><g transform="translate(-20052.084 -12287.047)"><g clip-path="url(#a)"><g clip-path="url(#a)"><g transform="matrix(1, 0, 0, 1, 0, 0)" filter="url(#c)"><path d="M78.518,43.339A37.061,37.061,0,1,1,41.457,6.278,37.06,37.06,0,0,1,78.518,43.339" transform="translate(1.03 1.48)" fill="#f2f2f2"/></g><path d="M67.791,41.622a28.05,28.05,0,1,1-28.05-28.05,28.051,28.051,0,0,1,28.05,28.05" transform="translate(2.751 3.194)" fill="#92d14f"/><path d="M67.791,41.622h0a28.05,28.05,0,1,1-28.05-28.05,28.051,28.051,0,0,1,28.05,28.05h0a28.05,28.05,0,1,0-28.05,28.05,28.051,28.051,0,0,0,28.05-28.05Z" transform="translate(2.751 3.194)" fill="url(#g)"/></g></g></g><g transform="translate(-20027.92 -12258.685)"><g transform="translate(0 0)" clip-path="url(#h)"><path d="M11.291,53.551a1.111,1.111,0,1,1,0,2.222,1.082,1.082,0,0,1-1.124-1.111,1.156,1.156,0,0,1,1.124-1.111" transform="translate(-4.221 -22.233)" fill="#74829c"/><path d="M4.161,23.551a1.462,1.462,0,1,1,0,2.924,1.462,1.462,0,1,1,0-2.924" transform="translate(-1.114 -9.778)" fill="#74829c"/><path d="M25.414,9.809A13.917,13.917,0,1,1,10.269,23.67a13.717,13.717,0,0,1,2.189-7.427,14.811,14.811,0,0,1,4.023-4.094,15.424,15.424,0,0,1,3.845-1.813,14.861,14.861,0,0,1,4.023-.585,6.872,6.872,0,0,1,1.065.058" transform="translate(-4.263 -4.048)" fill="#dee4f0"/><path d="M20.033,8.646a8.863,8.863,0,0,0-1.065-3.04,8.125,8.125,0,0,1,1.361-1.814c2.189-2.164,5.383-2.865,8.815-2.28a12.125,12.125,0,0,1-.119,4.854,13.961,13.961,0,0,0-8.992,2.28" transform="translate(-7.875 -0.546)" fill="#6e8c61"/><path d="M12.71,8.775a14.055,14.055,0,0,0-4.022,4.094A8.768,8.768,0,0,1,3.835,10.53C1.646,8.367.937,5.208,1.528,1.817A10.009,10.009,0,0,1,10.343,4.1a8.359,8.359,0,0,1,1.3,1.638,8.455,8.455,0,0,1,1.065,3.04" transform="translate(-0.552 -0.675)" fill="#80af52"/><rect width="1.479" height="1.462" transform="translate(31.858 1.316)"/><path d="M55.244,9.751a.76.76,0,1,1,0,1.521.822.822,0,0,1-.769-.76.779.779,0,0,1,.769-.76" transform="translate(-22.617 -4.048)"/><path d="M52.715,31.051a.761.761,0,1,1-.769.76.779.779,0,0,1,.769-.76" transform="translate(-21.567 -12.892)"/><rect width="4.437" height="1.462" transform="translate(26.711 1.316)"/><path d="M51.4,54.751a.76.76,0,1,1-.769.76.822.822,0,0,1,.769-.76" transform="translate(-21.021 -22.731)"/><path d="M44.561,26.256a3.31,3.31,0,0,1,0,2.456,4.582,4.582,0,0,1-.651,1.053,3.889,3.889,0,0,1-1.006.7,3.254,3.254,0,0,1-1.3.292,3.041,3.041,0,0,1-1.3-.292,2.193,2.193,0,0,1-1.006-.76,2.229,2.229,0,0,1-.532-.761c-.059-.116-.119-.175-.119-.292a2.435,2.435,0,0,1-.354-1.228,3.026,3.026,0,0,1,.236-1.228c.059-.058.059-.176.118-.234a4.179,4.179,0,0,1,.592-.819,3.361,3.361,0,0,1,1.065-.7,3.245,3.245,0,0,1,1.3-.292,3.031,3.031,0,0,1,1.3.292,2.189,2.189,0,0,1,1.006.76,2.446,2.446,0,0,1,.651,1.053M43.2,28.128a2.144,2.144,0,0,0,0-1.4,1.391,1.391,0,0,0-.355-.643,1.842,1.842,0,0,0-.533-.409A1.588,1.588,0,0,0,41.6,25.5a1.652,1.652,0,0,0-.769.175,1.041,1.041,0,0,0-.533.468,2.161,2.161,0,0,0-.3.643,2.144,2.144,0,0,0,0,1.4,1.4,1.4,0,0,0,.355.643.941.941,0,0,0,.533.409,1.581,1.581,0,0,0,.71.176,1.644,1.644,0,0,0,.768-.176,1.388,1.388,0,0,0,.533-.467,7.044,7.044,0,0,0,.3-.643" transform="translate(-15.897 -10.027)"/><path d="M46.342,7.251a.76.76,0,1,1-.769.76.822.822,0,0,1,.769-.76" transform="translate(-18.921 -3.01)"/><path d="M43.814,17.251a.76.76,0,1,1-.769.76.822.822,0,0,1,.769-.76" transform="translate(-17.871 -7.162)"/><path d="M32.342,28.437l1.242.7a2.39,2.39,0,0,1-.414.643,2.619,2.619,0,0,1-.651.468,3.489,3.489,0,0,1-.828.292,4.076,4.076,0,0,1-.828.116,3.067,3.067,0,0,1-2.307-1.053,2.838,2.838,0,0,1-.651-1.053,3.018,3.018,0,0,1-.237-1.228,2.752,2.752,0,0,1,.237-1.17,2.836,2.836,0,0,1,.651-1.053,6.457,6.457,0,0,1,1.006-.76,3.542,3.542,0,0,1,1.36-.292,2.957,2.957,0,0,1,1.6.409,2.342,2.342,0,0,1,1.006.994l-1.183.819a1.044,1.044,0,0,0-.3-.409c-.118-.118-.237-.176-.355-.292a1.1,1.1,0,0,0-.414-.118c-.118,0-.3-.058-.414-.058a1.646,1.646,0,0,0-.769.176,1.386,1.386,0,0,0-.532.467,2.145,2.145,0,0,0-.3.643,2.91,2.91,0,0,0-.119.7,3.382,3.382,0,0,0,.119.76,1.391,1.391,0,0,0,.355.644,1.634,1.634,0,0,0,.532.409,1.591,1.591,0,0,0,.71.176,1.008,1.008,0,0,0,.414-.059c.118-.058.3-.058.414-.175a1.549,1.549,0,0,0,.355-.292.676.676,0,0,0,.3-.409" transform="translate(-11.487 -9.985)"/><path d="M29.955,17.251a.76.76,0,1,1,0,1.521.822.822,0,0,1-.769-.76.779.779,0,0,1,.769-.76" transform="translate(-12.117 -7.162)"/><path d="M23.625,29.4v1.287H19.069V24.251h4.5v1.287H20.549v1.228h2.6v1.229h-2.6v1.4Z" transform="translate(-7.917 -10.068)"/><path d="M14.781,31.051a.761.761,0,1,1,0,1.521.832.832,0,0,1-.769-.819.73.73,0,0,1,.769-.7" transform="translate(-5.817 -12.892)"/><rect width="1.479" height="1.462" transform="translate(5.237 26.932)"/><rect width="4.437" height="1.462" transform="translate(0.089 26.932)"/><path d="M3.35,39.751a.76.76,0,1,1-.769.76.779.779,0,0,1,.769-.76" transform="translate(-1.072 -16.504)"/><path d="M2.136,53.551a.761.761,0,1,1-.769.76.742.742,0,0,1,.769-.76" transform="translate(-0.568 -22.233)"/><path d="M26.866,9.049a.68.68,0,0,1-.474-.175.8.8,0,0,1-.059-1.053l2.485-2.632a.819.819,0,0,1,1.065-.058.8.8,0,0,1,.059,1.053L27.457,8.815a.766.766,0,0,1-.591.234" transform="translate(-10.862 -2.06)"/><path d="M26.645,9.7a.7.7,0,0,1-.71-.644l-.3-1.7a.72.72,0,0,1,1.42-.234l.3,1.7v.058A.73.73,0,0,1,26.7,9.7Z" transform="translate(-10.641 -2.713)"/><path d="M9.734,10.483a.728.728,0,0,1-.533-.234l-3.845-3.8a.735.735,0,0,1,0-1.053.756.756,0,0,1,1.065,0l3.846,3.8a.736.736,0,0,1,0,1.053.728.728,0,0,1-.533.234" transform="translate(-2.132 -2.149)"/><path d="M14.772,15.563a.727.727,0,0,1-.533-.234l-2.307-2.281a.736.736,0,0,1,0-1.053A.756.756,0,0,1,13,12L15.3,14.276a.735.735,0,0,1,0,1.053.753.753,0,0,1-.532.234" transform="translate(-4.862 -4.889)"/><path d="M8.4,10.658H8.282l-2.426-.351a.736.736,0,1,1,.178-1.462L8.459,9.2a.73.73,0,0,1,.651.818.753.753,0,0,1-.71.644" transform="translate(-2.158 -3.669)"/><path d="M11.941,14.158h-.118L9.4,13.807a.736.736,0,1,1,.178-1.462L12,12.7a.73.73,0,0,1,.651.818.753.753,0,0,1-.71.644" transform="translate(-3.628 -5.122)"/><path d="M12.239,11.506a.707.707,0,0,1-.71-.643l-.355-2.4a.745.745,0,0,1,1.479-.175l.355,2.4V10.8a.73.73,0,0,1-.769.7" transform="translate(-4.636 -3.171)"/><path d="M15.78,15.006a.7.7,0,0,1-.71-.643l-.355-2.4a.745.745,0,0,1,1.479-.175l.355,2.4a.729.729,0,0,1-.651.819Z" transform="translate(-6.106 -4.624)"/><path d="M19.513,11.88a.7.7,0,0,1-.71-.585A8.343,8.343,0,0,0,17.8,8.488a.745.745,0,0,1,.3-.994.763.763,0,0,1,1.006.292,10.334,10.334,0,0,1,1.183,3.276.687.687,0,0,1-.591.818Z" transform="translate(-7.355 -3.078)"/><path d="M28.506,6.463a.771.771,0,0,1-.769-.7V5.586a11.279,11.279,0,0,0,.236-4.035,8.85,8.85,0,0,0-7.631,2.163A6.012,6.012,0,0,0,19.1,5.41a.763.763,0,0,1-1.006.292.745.745,0,0,1-.3-.994,8.553,8.553,0,0,1,1.538-1.988C21.644.439,24.956-.438,28.8.205a.756.756,0,0,1,.591.585,12.444,12.444,0,0,1-.177,5.147.708.708,0,0,1-.71.526" transform="translate(-7.356 0)"/><path d="M8.135,13.021H8.017a9.726,9.726,0,0,1-5.265-2.573C.444,8.167-.443,4.892.208,1.091A.755.755,0,0,1,.8.506C4.645-.138,7.958.739,10.265,3.02a8.818,8.818,0,0,1,1.419,1.813.825.825,0,0,1,.118.351.778.778,0,0,1-.769.76.727.727,0,0,1-.65-.409A6.9,6.9,0,0,0,9.259,4.073,8.911,8.911,0,0,0,1.628,1.909,8.618,8.618,0,0,0,3.817,9.453a7.945,7.945,0,0,0,4.437,2.164.687.687,0,0,1,.592.818.664.664,0,0,1-.71.585" transform="translate(0 -0.125)"/><path d="M23.744,37.834A14.712,14.712,0,0,1,8.954,23.213a14.139,14.139,0,0,1,2.307-7.837,14.534,14.534,0,0,1,4.2-4.27,14.8,14.8,0,0,1,4.023-1.871,14.571,14.571,0,0,1,4.2-.585,8.438,8.438,0,0,1,1.184.058,14.579,14.579,0,0,1-1.125,29.124M12.5,16.137a12.829,12.829,0,0,0-2.07,7.018,13.312,13.312,0,1,0,14.376-13.1c-.355,0-.711-.058-1.066-.058a13.785,13.785,0,0,0-3.786.526H19.9a13.561,13.561,0,0,0-3.608,1.7A14.1,14.1,0,0,0,12.5,16.137" transform="translate(-3.717 -3.592)"/><path d="M36.271,38.672H18.523a.76.76,0,1,1,0-1.521H36.271a.76.76,0,1,1,0,1.521" transform="translate(-7.371 -15.424)"/><path d="M35.414,42.472H23.582a.76.76,0,1,1,0-1.521H35.414a.76.76,0,1,1,0,1.521" transform="translate(-9.471 -17.002)"/><path d="M34.82,46.172h-7.4a.76.76,0,1,1,0-1.521h7.4a.779.779,0,0,1,.769.76.873.873,0,0,1-.769.76" transform="translate(-11.067 -18.538)"/><path d="M3.615,26.6a2.222,2.222,0,1,1,2.248-2.222A2.273,2.273,0,0,1,3.615,26.6m0-2.924a.76.76,0,1,0,.769.76.822.822,0,0,0-.769-.76" transform="translate(-0.568 -9.197)"/><path d="M10.787,55.977a1.813,1.813,0,1,1,1.834-1.813,1.833,1.833,0,0,1-1.834,1.813m0-2.222a.351.351,0,1,0,.355.351c.06-.175-.118-.351-.355-.351" transform="translate(-3.717 -21.735)"/></g></g></g></svg>