<svg xmlns="http://www.w3.org/2000/svg" xmlns:xlink="http://www.w3.org/1999/xlink" width="94.877" height="94.58" viewBox="0 0 94.877 94.58"><defs><clipPath id="a"><rect width="94.876" height="94.58" fill="none"/></clipPath><filter id="c" x="-3.568" y="1.756" width="92.121" height="92.122" filterUnits="userSpaceOnUse"><feOffset dy="3" input="SourceAlpha"/><feGaussianBlur stdDeviation="3" result="d"/><feFlood flood-opacity="0.161"/><feComposite operator="in" in2="d"/><feComposite in="SourceGraphic"/></filter><clipPath id="f"><rect width="94.876" height="94.58" fill="#a01515"/></clipPath><linearGradient id="g" x1="-0.257" y1="1.387" x2="-0.235" y2="1.387" gradientUnits="objectBoundingBox"><stop offset="0" stop-color="#92d14f"/><stop offset="1" stop-color="#538834"/></linearGradient><clipPath id="h"><rect width="35.337" height="32.735" fill="none"/></clipPath></defs><g transform="translate(20052.084 12287.047)"><g transform="translate(-20052.084 -12287.047)"><g clip-path="url(#a)"><g clip-path="url(#a)"><g transform="matrix(1, 0, 0, 1, 0, 0)" filter="url(#c)"><path d="M78.518,43.339A37.061,37.061,0,1,1,41.457,6.278,37.06,37.06,0,0,1,78.518,43.339" transform="translate(1.03 1.48)" fill="#f2f2f2"/></g><path d="M67.791,41.622a28.05,28.05,0,1,1-28.05-28.05,28.051,28.051,0,0,1,28.05,28.05" transform="translate(2.751 3.194)" fill="#92d14f"/><path d="M67.791,41.622h0a28.05,28.05,0,1,1-28.05-28.05,28.051,28.051,0,0,1,28.05,28.05h0a28.05,28.05,0,1,0-28.05,28.05,28.051,28.051,0,0,0,28.05-28.05Z" transform="translate(2.751 3.194)" fill="url(#g)"/></g></g></g><g transform="translate(-20027.93 -12257.817)"><g transform="translate(0 0)" clip-path="url(#h)"><path d="M2.817,43.9a1.485,1.485,0,1,1,0,2.97,1.485,1.485,0,1,1,0-2.97" transform="translate(-0.534 -17.819)" fill="#74829c"/><path d="M9.089,16.4a1.485,1.485,0,1,1-1.5,1.485,1.48,1.48,0,0,1,1.5-1.485" transform="translate(-3.08 -6.656)" fill="#74829c"/><path d="M53.757,28.9a1.842,1.842,0,1,1-1.863,1.842A1.853,1.853,0,0,1,53.757,28.9" transform="translate(-21.064 -11.73)" fill="#74829c"/><path d="M55.464,6.4a1.135,1.135,0,0,1,1.142,1.129,1.142,1.142,0,0,1-2.284,0A1.135,1.135,0,0,1,55.464,6.4" transform="translate(-22.05 -2.597)" fill="#74829c"/><path d="M33.18,29.562a6.221,6.221,0,0,1,5.95-.059,6.141,6.141,0,0,1,2.885,5.169,6.221,6.221,0,0,1-5.95.059,6.139,6.139,0,0,1-2.885-5.169" transform="translate(-13.468 -11.679)" fill="#80af52"/><path d="M28.254,18.4a6.2,6.2,0,0,1-3.065-5.05A6.2,6.2,0,0,1,28.254,8.3a6.2,6.2,0,0,1,3.065,5.05,6.2,6.2,0,0,1-3.065,5.05" transform="translate(-10.224 -3.369)" fill="#80af52"/><path d="M21.479,29.576a6.367,6.367,0,0,1-2.884,5.169,6.387,6.387,0,0,1-5.95-.059,6.367,6.367,0,0,1,2.884-5.169,6.389,6.389,0,0,1,5.95.059" transform="translate(-5.133 -11.694)" fill="#80af52"/><path d="M56.419,47.6a.772.772,0,1,1,0,1.545.834.834,0,0,1-.781-.772.79.79,0,0,1,.781-.772" transform="translate(-22.584 -19.321)"/><rect width="1.502" height="1.485" transform="translate(32.333 0.059)"/><rect width="4.507" height="1.485" transform="translate(27.044 0.059)"/><path d="M42.459,17.6a.772.772,0,1,1-.781.772.834.834,0,0,1,.781-.772" transform="translate(-16.917 -7.144)"/><path d="M26.07,43.9a.773.773,0,1,1,0,1.545.845.845,0,0,1-.781-.832.742.742,0,0,1,.781-.713" transform="translate(-10.265 -17.819)"/><path d="M19.7,13.9a.773.773,0,1,1-.781.772A.791.791,0,0,1,19.7,13.9" transform="translate(-7.679 -5.641)"/><rect width="1.502" height="1.485" transform="translate(6.791 30.536)"/><rect width="4.507" height="1.485" transform="translate(1.502 30.536)"/><path d="M3.31,1.4a.791.791,0,0,1,.781.772.781.781,0,0,1-1.562,0A.753.753,0,0,1,3.31,1.4" transform="translate(-1.027 -0.568)"/><path d="M19.174,44.947A16.548,16.548,0,0,1,2.828,30.927a.757.757,0,0,1,1.5-.178A14.477,14.477,0,0,0,8.6,39.125a15.251,15.251,0,0,0,21.275,0,.768.768,0,0,1,1.082,0,.747.747,0,0,1,0,1.069,17.109,17.109,0,0,1-11.779,4.753" transform="translate(-1.145 -12.212)"/><path d="M37.812,14.912a.715.715,0,0,1-.722-.654,14.472,14.472,0,0,0-4.266-8.377,15.252,15.252,0,0,0-21.275,0,.768.768,0,0,1-1.082,0,.747.747,0,0,1,0-1.069,16.54,16.54,0,0,1,28.006,9.208.74.74,0,0,1-.661.832c.06.059,0,.059,0,.059" transform="translate(-4.157 0)"/><path d="M46.412,49.452a.791.791,0,0,1-.781-.772V46.244H43.167a.773.773,0,1,1,0-1.545h3.186a.791.791,0,0,1,.781.773v3.149c0,.534-.3.831-.721.831" transform="translate(-17.205 -18.143)"/><path d="M14.183,7.093H11a.792.792,0,0,1-.782-.772V3.172a.782.782,0,0,1,1.563,0V5.608h2.464a.791.791,0,0,1,.781.772.9.9,0,0,1-.841.713" transform="translate(-4.147 -0.974)"/><path d="M2.284,47.015a2.258,2.258,0,1,1,0-4.515,2.27,2.27,0,0,1,2.284,2.258,2.309,2.309,0,0,1-2.284,2.258m0-2.97a.772.772,0,1,0,.781.772.887.887,0,0,0-.781-.772" transform="translate(0 -17.251)"/><path d="M54.971,8.883a1.842,1.842,0,1,1,1.863-1.842,1.862,1.862,0,0,1-1.863,1.842m0-2.258a.356.356,0,1,0,.361.356.344.344,0,0,0-.361-.356" transform="translate(-21.557 -2.11)"/><path d="M27.761,18.634a1.124,1.124,0,0,1-.421-.119,6.889,6.889,0,0,1-3.366-5.7,7.035,7.035,0,0,1,3.366-5.7.731.731,0,0,1,.841,0,6.891,6.891,0,0,1,3.366,5.7,7.033,7.033,0,0,1-3.366,5.7,1.124,1.124,0,0,1-.421.119m0-9.981a5.384,5.384,0,0,0-2.284,4.159,5.385,5.385,0,0,0,2.284,4.159,5.385,5.385,0,0,0,2.284-4.159,5.384,5.384,0,0,0-2.284-4.159" transform="translate(-9.732 -2.831)"/><path d="M38.3,35.6a6.293,6.293,0,0,1-3.125-.832A6.944,6.944,0,0,1,31.865,29a.719.719,0,0,1,.421-.713,7.834,7.834,0,0,1,3.546-.891,6.3,6.3,0,0,1,3.125.832,6.945,6.945,0,0,1,3.3,5.763.718.718,0,0,1-.421.712A8.025,8.025,0,0,1,38.3,35.6m-4.868-6.119a5.3,5.3,0,0,0,2.464,4.04,4.588,4.588,0,0,0,2.344.594,6.92,6.92,0,0,0,2.4-.475,5.306,5.306,0,0,0-2.464-4.04A4.583,4.583,0,0,0,35.832,29a5.975,5.975,0,0,0-2.4.475" transform="translate(-12.934 -11.121)"/><path d="M15.3,35.6a7.833,7.833,0,0,1-3.546-.891.718.718,0,0,1-.421-.712,7.028,7.028,0,0,1,3.306-5.763A6.3,6.3,0,0,1,17.76,27.4a7.833,7.833,0,0,1,3.546.891.719.719,0,0,1,.421.713,7.029,7.029,0,0,1-3.3,5.763A5.6,5.6,0,0,1,15.3,35.6m-2.4-1.961a5.964,5.964,0,0,0,2.4.475,4.44,4.44,0,0,0,2.344-.594,5.306,5.306,0,0,0,2.464-4.04A5.974,5.974,0,0,0,17.7,29a4.435,4.435,0,0,0-2.344.594,5.306,5.306,0,0,0-2.464,4.04" transform="translate(-4.599 -11.121)"/><path d="M18.914,32.984a.722.722,0,0,1-.361-1.366l4.808-2.673a.775.775,0,0,1,1.022.3.756.756,0,0,1-.3,1.009l-4.808,2.673a.762.762,0,0,1-.361.06" transform="translate(-7.375 -11.715)"/><path d="M36.638,32.568a.859.859,0,0,1-.36-.119l-3.967-2.2a.757.757,0,0,1-.3-1.01.775.775,0,0,1,1.022-.3L37,31.142a.757.757,0,0,1,.3,1.01.651.651,0,0,1-.661.416" transform="translate(-12.96 -11.715)"/><path d="M29.814,22.216a.791.791,0,0,1-.781-.772V16.572a.781.781,0,0,1,1.562,0v4.872a.791.791,0,0,1-.781.772" transform="translate(-11.785 -6.413)"/><path d="M8.556,19.515a2.258,2.258,0,1,1,2.284-2.258,2.27,2.27,0,0,1-2.284,2.258m0-2.97a.772.772,0,1,0,.781.772.791.791,0,0,0-.781-.772" transform="translate(-2.546 -6.088)"/><path d="M53.223,32.828a2.614,2.614,0,1,1,2.644-2.614,2.653,2.653,0,0,1-2.644,2.614m0-3.743a1.135,1.135,0,0,0-1.142,1.129,1.1,1.1,0,0,0,1.142,1.129,1.129,1.129,0,1,0,0-2.258" transform="translate(-20.53 -11.203)"/></g></g></g></svg>