<svg xmlns="http://www.w3.org/2000/svg" width="86.97" height="65.716" viewBox="0 0 86.97 65.716"><g transform="translate(-4 -65.586)"><g transform="translate(6.416 68.002)"><path d="M351.066,232.281h-2.9a1.208,1.208,0,0,1-1.208-1.208V226.31a1.208,1.208,0,0,1,1.208-1.208h2.9v-7.517a3.139,3.139,0,0,0-.873-2.242l-7.234-7.883a3.155,3.155,0,0,0-2.443-1.074H323.748v27.836h5.973a8.354,8.354,0,0,1,13.079,0h8.266Zm-19.182-8.358h-3.952a1.208,1.208,0,0,1,0-2.416h3.952a1.208,1.208,0,0,1,0,2.416Zm-3.952-4.429a1.208,1.208,0,0,1-1.208-1.208v-9.579a1.208,1.208,0,0,1,1.208-1.208h13.031a1.207,1.207,0,0,1,.89.391l5.34,5.819a5.568,5.568,0,0,1,1.509,3.875v.7a1.208,1.208,0,0,1-1.208,1.208H327.932Z" transform="translate(-270.988 -184.506)" fill="#a8e304"/><path d="M442.354,383.288h8.586V381.7h-8.98A8.306,8.306,0,0,1,442.354,383.288Z" transform="translate(-368.801 -329.566)" fill="#a8e304"/><path d="M146.408,383.288h34.507a8.29,8.29,0,0,1,.394-1.59h-35.3A8.3,8.3,0,0,1,146.408,383.288Z" transform="translate(-123.924 -329.566)" fill="#a8e304"/><circle cx="1.51" cy="1.51" r="1.51" transform="translate(63.762 53.42)" fill="#a8e304"/><path d="M59.438,153.187c.164-.15.334-.3.506-.456,1.912-1.71,3.033-2.857,2.385-4.262-.076-.119-.222-.313-.363-.326a1.277,1.277,0,0,0-.837.526c-.082.094-.178.209-.284.337-.931,1.118-2.462,2.955-4.091,2.354a18.52,18.52,0,0,0,2.688,13.627,4.431,4.431,0,0,0,2.29-.727,3.325,3.325,0,0,0-1.179-.788l-.073-.035c-1.023-.48-2.568-1.206-2.94-2.58a2.415,2.415,0,0,1,.413-2.057c.1-.146.07-.4-.023-.958a4.491,4.491,0,0,1,1.507-4.654Z" transform="translate(-49.793 -136.312)" fill="#85e5aa"/><path d="M131.64,260.965c-.257.007-.729.02-1.02.833a18.52,18.52,0,0,0,17.556-3.352c-.682-1.13-1.514-2.2-2.439-2.35a3.283,3.283,0,0,0-2.52,1.179c-1.673,1.534-2.714,2.27-3.747,2.038a2.062,2.062,0,0,1-1.4-1.443c-.245-.6-.319-.783-1.042-.783a3.971,3.971,0,0,0-1.724.228,3.622,3.622,0,0,0,.01.447,2.757,2.757,0,0,1-.586,2.2,4.1,4.1,0,0,1-3.093,1.006Z" transform="translate(-111.186 -225.622)" fill="#85e5aa"/><path d="M68.344,340.027H18V344.8h7.664a8.355,8.355,0,0,1,13.079,0h29.6Z" transform="translate(-18 -295.086)" fill="#8c8fec"/><path d="M114.507,82.454l.092.029c1.251.388,3.141.973,3.766,2.44a2.662,2.662,0,0,1-.144,2.308c-.1.2-.1.205.113.638.545,1.091.969,2.444-.911,4.711a2.83,2.83,0,0,0-.06.845c.012,1.122.036,3.21-2.852,3.861l-.138.031a22.642,22.642,0,0,0-4.915,1.494,1.876,1.876,0,0,0,.506-.177c1.511-.661,2.834-.592,4.764,1.789.177.218.443.476.722.461a1.728,1.728,0,0,0,1.093-.87c.082-.126.178-.28.284-.451.984-1.584,2.471-3.978,4.464-3.293.959.329,1.356.233,1.428.167.011-.009.256-.244.182-1.334a17.479,17.479,0,0,0-.471-2.637c-.083-.356-.155-.663-.2-.929a4.782,4.782,0,0,1,2.168-4.512,3.108,3.108,0,0,1,3.34-.466c.643.376,1.37,1.225,1.178,3.138-.014.138-.018.246-.018.33a5.092,5.092,0,0,0,.727-.188c.862-.277.993-.54.425-2.7-.292-1.108-.692-2.631-.1-3.859a18.526,18.526,0,0,0-17.084-2.7,3.224,3.224,0,0,0,1.644,1.873Z" transform="translate(-93.677 -79.589)" fill="#85e5aa"/><path d="M18,383.288h5.923a8.291,8.291,0,0,1,.394-1.59H18Z" transform="translate(-18 -329.566)" fill="#a8e304"/><circle cx="1.51" cy="1.51" r="1.51" transform="translate(12.694 53.42)" fill="#a8e304"/></g><path d="M63.359,102.99H82.921a1.208,1.208,0,0,0,1.208-1.208v-.7a5.567,5.567,0,0,0-1.509-3.875l-5.34-5.819a1.207,1.207,0,0,0-.89-.391H63.359A1.208,1.208,0,0,0,62.151,92.2v9.579a1.208,1.208,0,0,0,1.208,1.208Zm1.208-9.579H75.859L80.84,98.84a3.115,3.115,0,0,1,.839,1.735H64.567V93.412Zm25.2,24.307h-.853V101.082A5.566,5.566,0,0,0,87.4,97.207l-7.234-7.883a5.6,5.6,0,0,0-4.223-1.857h-.356l-3.013-3.013A3.511,3.511,0,0,0,70.041,83.4H59.176V75.465a3.837,3.837,0,0,0-3.833-3.833H46.3a20.921,20.921,0,0,0-29.423,0H7.833A3.837,3.837,0,0,0,4,75.465v47.467a1.208,1.208,0,0,0,1.208,1.208h7.131a8.368,8.368,0,0,0,16.562,0H63.407a8.368,8.368,0,0,0,16.562,0h9.793a1.208,1.208,0,0,0,1.208-1.208v-4.006a1.208,1.208,0,0,0-1.208-1.208Zm-3.269-4.357H84.8v-2.347h1.7ZM78.387,90.957l7.234,7.883a3.139,3.139,0,0,1,.873,2.242V108.6h-2.9a1.208,1.208,0,0,0-1.208,1.208v4.763a1.208,1.208,0,0,0,1.208,1.208h2.9v1.941H78.228a8.354,8.354,0,0,0-13.079,0H59.176V89.882H75.944a3.155,3.155,0,0,1,2.443,1.074ZM14.08,117.718H6.416v-4.775H56.76v4.775h-29.6a8.355,8.355,0,0,0-13.079,0Zm14.426,2.416H63.8a8.29,8.29,0,0,0-.394,1.59H28.9a8.29,8.29,0,0,0-.394-1.59ZM70.041,85.82a1.087,1.087,0,0,1,.825.342l1.305,1.305h-13V85.82ZM30.548,100.143a3.625,3.625,0,0,1-.01-.447,3.968,3.968,0,0,1,1.724-.228c.723,0,.8.182,1.042.783a2.062,2.062,0,0,0,1.4,1.443c1.033.232,2.074-.5,3.747-2.038a3.284,3.284,0,0,1,2.52-1.179c.925.155,1.758,1.221,2.439,2.35a18.52,18.52,0,0,1-17.556,3.352c.291-.813.763-.826,1.02-.833a4.1,4.1,0,0,0,3.093-1.006,2.758,2.758,0,0,0,.586-2.2Zm14.646-1.01a6.035,6.035,0,0,0-3.83-3.039c-1.464-.245-3,.355-4.551,1.781a16.416,16.416,0,0,1-1.395,1.174,3.162,3.162,0,0,0-3.157-2c-1.776,0-2.859.31-3.514,1.006a2.758,2.758,0,0,0-.611,2.232,3.829,3.829,0,0,1,.011.433,3.438,3.438,0,0,1-1.342.208,3.4,3.4,0,0,0-3.194,2.352,18.651,18.651,0,0,1-5.9-4.449c1.712-.437,2.832-1.3,3.062-2.438.187-.921-.108-2.262-2.573-3.421l-.075-.035a5.545,5.545,0,0,1-1.616-.993.705.705,0,0,1,.052-.086,3.47,3.47,0,0,0,.371-2.73,2.18,2.18,0,0,1,.753-2.47c.158-.145.322-.291.488-.44,1.781-1.593,4.473-4,2.921-7.174q-.023-.048-.051-.093A2.945,2.945,0,0,0,18.8,77.427a3.5,3.5,0,0,0-2.867,1.341c-.093.106-.2.237-.324.383a8.625,8.625,0,0,1-1.546,1.56L14,80.68a18.641,18.641,0,0,1,9.374-10.754,5.426,5.426,0,0,0,3.158,3.249l.094.029c.567.175,2.072.642,2.258,1.079a.485.485,0,0,1-.08.277,2.839,2.839,0,0,0,.111,2.8c.272.545.422.845-.609,2.09a3.469,3.469,0,0,0-.616,2.414c.012,1.04.014,1.256-.968,1.477l-.126.028c-6.1,1.341-7.125,2.532-7.327,3.62a1.941,1.941,0,0,0,1.027,2.029,3.142,3.142,0,0,0,3.379.241c.353-.154.442-.18.531-.157.143.038.563.236,1.387,1.254a3.254,3.254,0,0,0,2.572,1.357c.051,0,.1,0,.147,0A3.954,3.954,0,0,0,31.3,89.753c.092-.14.2-.311.317-.5a8.872,8.872,0,0,1,1.743-2.244c1.613.529,2.863.407,3.716-.363,1.583-1.43.9-4.368.444-6.312-.076-.328-.143-.611-.183-.825a2.122,2.122,0,0,1,.723-1.7,2.394,2.394,0,0,1,1.16-.727,2.267,2.267,0,0,1,.026.786,2.851,2.851,0,0,0,.768,2.548,3.224,3.224,0,0,0,3.084.135,3.165,3.165,0,0,0,2.411-2.683,7.786,7.786,0,0,0-.39-2.929,12.75,12.75,0,0,1-.308-1.38,18.508,18.508,0,0,1,.38,25.572ZM13.378,83.049c1.628.6,3.159-1.235,4.091-2.354.107-.128.2-.243.284-.337a1.275,1.275,0,0,1,.837-.526c.141.012.287.207.363.326.648,1.4-.472,2.552-2.385,4.262-.172.154-.342.306-.506.456a4.491,4.491,0,0,0-1.507,4.654c.093.555.123.813.023.958a2.414,2.414,0,0,0-.413,2.057c.371,1.374,1.917,2.1,2.94,2.58l.073.035a3.328,3.328,0,0,1,1.179.788,4.431,4.431,0,0,1-2.29.727,18.52,18.52,0,0,1-2.688-13.627ZM42.686,71.7c-.591,1.228-.192,2.751.1,3.859.568,2.157.437,2.419-.425,2.7a5.07,5.07,0,0,1-.727.188c0-.084,0-.192.018-.33.192-1.913-.535-2.763-1.178-3.138a3.108,3.108,0,0,0-3.34.466,4.781,4.781,0,0,0-2.168,4.512c.05.266.121.573.2.929a17.478,17.478,0,0,1,.471,2.637c.073,1.09-.172,1.325-.182,1.334-.072.065-.47.162-1.428-.167-1.993-.684-3.48,1.709-4.464,3.293-.106.171-.2.325-.284.451a1.728,1.728,0,0,1-1.093.87c-.279.015-.545-.243-.722-.461-1.929-2.381-3.253-2.45-4.764-1.789a1.874,1.874,0,0,1-.506.177,22.639,22.639,0,0,1,4.915-1.494l.138-.031c2.888-.651,2.865-2.739,2.852-3.861a2.824,2.824,0,0,1,.06-.845c1.88-2.267,1.456-3.62.911-4.711-.216-.433-.214-.437-.113-.638a2.662,2.662,0,0,0,.144-2.308c-.625-1.467-2.515-2.053-3.766-2.44l-.092-.029A3.224,3.224,0,0,1,25.6,68.994a18.526,18.526,0,0,1,17.084,2.7ZM7.833,74.048h6.941a20.96,20.96,0,1,0,33.631,0h6.937a1.419,1.419,0,0,1,1.417,1.417v35.063H6.416V75.465A1.419,1.419,0,0,1,7.833,74.048ZM6.416,120.134h6.317a8.29,8.29,0,0,0-.394,1.59H6.416Zm14.2,8.752a5.953,5.953,0,1,1,5.953-5.953A5.96,5.96,0,0,1,20.62,128.886Zm51.069,0a5.953,5.953,0,1,1,5.953-5.953A5.96,5.96,0,0,1,71.688,128.886Zm16.866-7.161H79.969a8.29,8.29,0,0,0-.394-1.59h8.98ZM68.519,106.211a1.208,1.208,0,0,1-1.208,1.208H63.359a1.208,1.208,0,0,1,0-2.416h3.952A1.208,1.208,0,0,1,68.519,106.211Zm3.169,12.8a3.926,3.926,0,1,0,3.926,3.926A3.93,3.93,0,0,0,71.688,119.007Zm0,5.436a1.51,1.51,0,1,1,1.51-1.51A1.512,1.512,0,0,1,71.688,124.443ZM20.62,119.007a3.926,3.926,0,1,0,3.926,3.926A3.93,3.93,0,0,0,20.62,119.007Zm0,5.436a1.51,1.51,0,1,1,1.51-1.51A1.512,1.512,0,0,1,20.62,124.443Z" fill="#282828"/></g></svg>