<svg xmlns="http://www.w3.org/2000/svg" width="103.297" height="103.28" viewBox="0 0 103.297 103.28"><g transform="translate(0 0)"><g transform="translate(0.016 20.659)"><g transform="translate(1.869 6.69)"><path d="M2.65,18.19H7.913V93.334H2.65Z" transform="translate(-2.65 -18.19)" fill="#323535"/></g><g transform="translate(1.082 5.903)"><path d="M8.22,94.428H2.957a.787.787,0,0,1-.787-.787V18.5a.787.787,0,0,1,.787-.787H8.22a.787.787,0,0,1,.787.787V93.641A.777.777,0,0,1,8.22,94.428Zm-4.46-1.59H7.433V19.284H3.76Z" transform="translate(-2.17 -17.71)"/></g><g transform="translate(65.159 47.549)"><path d="M41.25,43.11h5.263V74.591H41.25Z" transform="translate(-41.25 -43.11)" fill="#323535"/></g><g transform="translate(64.356 46.779)"><path d="M46.81,75.695H41.547a.787.787,0,0,1-.787-.787V43.427a.787.787,0,0,1,.787-.787H46.81a.787.787,0,0,1,.787.787V74.908A.777.777,0,0,1,46.81,75.695ZM42.35,74.1h3.673V44.214H42.35Z" transform="translate(-40.76 -42.64)"/></g><g transform="translate(86.917 55.6)"><path d="M54.52,48.02h5.247V74.238H54.52Z" transform="translate(-54.52 -48.02)" fill="#323535"/></g><g transform="translate(86.13 54.813)"><path d="M60.074,75.348H54.827a.787.787,0,0,1-.787-.787V48.327a.787.787,0,0,1,.787-.787h5.247a.787.787,0,0,1,.787.787V74.545a.791.791,0,0,1-.787.8Zm-4.46-1.59H59.27V49.13H55.614Z" transform="translate(-54.04 -47.54)"/></g><g transform="translate(1.082 64.979)"><g transform="translate(0.787 0.787)"><path d="M50.954,70.272H2.65A8.8,8.8,0,0,1,18.7,65.288h.115a3.132,3.132,0,0,1,4.3-.8,8.235,8.235,0,0,1-.18-1.705A8.565,8.565,0,0,1,39.82,60.762C40.788,59.2,42.3,57.45,43.8,58.188c.771.377.394,1.918-.246,3.46a3.177,3.177,0,0,1,3.164,3.164v.541A4.987,4.987,0,0,1,50.954,70.272Z" transform="translate(-2.65 -54.22)" fill="#b9dd53"/></g><g transform="translate(0.803 0.754)"><path d="M50.947,70.285H2.66a8.805,8.805,0,0,1,16.052-5.017h.115a3.165,3.165,0,0,1,2.558-1.328,3.11,3.11,0,0,1,1.754.525,8.235,8.235,0,0,1-.18-1.705,8.565,8.565,0,0,1,16.888-2.017c.967-1.558,2.476-3.312,3.984-2.574.771.377.394,1.918-.246,3.46a3.17,3.17,0,0,1,3.164,3.181v.541c.213.033.426.1.639.148A5.018,5.018,0,0,1,50.947,70.285Z" transform="translate(-2.66 -54.2)" fill="#b9dd53"/></g><g transform="translate(0.803 12.068)"><path d="M50.947,65.871H2.66a8.773,8.773,0,0,1,.623-3.279l.262-.131S31.075,63.74,47.422,61.1A4.994,4.994,0,0,1,50.947,65.871Z" transform="translate(-2.66 -61.1)" fill="#a3c134"/></g><g transform="translate(36.614 6.506)"><path d="M25.3,60.335a.809.809,0,0,1-.377-.1.792.792,0,0,1-.328-1.082c.164-.312.377-.689.607-1.066a.8.8,0,0,1,1.361.836c-.213.344-.41.672-.557.967a.812.812,0,0,1-.705.443Z" transform="translate(-24.5 -57.708)" fill="#050505"/></g><path d="M51.261,71.382H2.957A.787.787,0,0,1,2.17,70.6,9.6,9.6,0,0,1,19.14,64.43a4.01,4.01,0,0,1,3.361-.869c0-.148-.016-.312-.016-.459a9.366,9.366,0,0,1,17.938-3.771c1.705-2.066,3.132-2.017,4.083-1.558,1.656.8.508,3.574.148,4.476a.79.79,0,1,1-1.459-.607c.82-2,.59-2.492.574-2.492-1.017-.475-2.377,1.459-2.919,2.328a.774.774,0,0,1-.8.361.788.788,0,0,1-.639-.607,7.7,7.7,0,0,0-7.542-5.919,7.788,7.788,0,0,0-7.772,7.772,6.3,6.3,0,0,0,.164,1.525.84.84,0,0,1-.328.836.792.792,0,0,1-.885,0,2.414,2.414,0,0,0-3.214.59.8.8,0,0,1-.656.344h-.115a.8.8,0,0,1-.656-.344,8,8,0,0,0-14.56,3.738h46.6A4.187,4.187,0,0,0,47,66.431a.808.808,0,0,1-.672-.787V65.1a.787.787,0,0,1,.787-.787.8.8,0,0,1,.787.705,5.77,5.77,0,0,1,4.181,5.558.841.841,0,0,1-.82.8Z" transform="translate(-2.17 -53.74)" fill="#050505"/><g transform="translate(40.188 7.416)"><path d="M27.483,61.275a.854.854,0,0,1-.475-.148.807.807,0,0,1-.18-1.115,3.508,3.508,0,0,0,.639-1.164.789.789,0,0,1,1.525.41,4.679,4.679,0,0,1-.885,1.689.729.729,0,0,1-.623.328Z" transform="translate(-26.681 -58.263)" fill="#050505"/></g></g><g transform="translate(21.905 55.6)"><path d="M14.87,48.02h5.247V74.238H14.87Z" transform="translate(-14.87 -48.02)" fill="#323535"/></g><g transform="translate(21.118 54.813)"><path d="M20.424,75.348H15.177a.787.787,0,0,1-.787-.787V48.327a.787.787,0,0,1,.787-.787h5.247a.787.787,0,0,1,.787.787V74.545a.781.781,0,0,1-.787.8Zm-4.46-1.59H19.62V49.13H15.964Z" transform="translate(-14.39 -47.54)"/></g><g transform="translate(0 81.047)"><path d="M103.987,65.114H2.3a.787.787,0,0,1,0-1.574H104a.787.787,0,0,1,.787.787.8.8,0,0,1-.8.787Z" transform="translate(-1.51 -63.54)"/></g><g transform="translate(1.155 0.787)"><path d="M29.737,73.764a10.327,10.327,0,0,1-9.51-6.3L2.912,26.756A8.744,8.744,0,0,1,10.963,14.59H75.646a10.327,10.327,0,0,1,9.51,6.3l17.315,40.728A8.744,8.744,0,0,1,94.42,73.781H29.737Z" transform="translate(-2.214 -14.59)" fill="#6bbeeb"/><g transform="translate(4.754 4.788)"><path d="M92.566,67.142h-64.7a5.553,5.553,0,0,1-5.116-3.378L5.436,23.036A3.968,3.968,0,0,1,9.092,17.51h64.7a5.553,5.553,0,0,1,5.116,3.378L96.238,61.6a4,4,0,0,1-3.673,5.542Z" transform="translate(-5.114 -17.51)" fill="#f1f3f6"/></g><g transform="translate(9.946 9.543)"><path d="M25.857,60.515a.836.836,0,0,1-.738-.475L8.28,20.41H71.767a.823.823,0,0,1,.738.492L89.343,60.515Z" transform="translate(-8.28 -20.41)" fill="#6bbeeb"/></g><g transform="translate(26.768 9.543)"><path d="M82.781,60.515h-63.5a.823.823,0,0,1-.738-.492S69.385,64.106,65.2,20.41a.823.823,0,0,1,.738.492Z" transform="translate(-18.54 -20.41)" fill="#56a7d2"/></g><g transform="translate(3.974 3.984)"><path d="M92.87,68.242H28.17a6.358,6.358,0,0,1-5.853-3.87L5.018,23.644A4.759,4.759,0,0,1,9.412,17.02h64.7a6.358,6.358,0,0,1,5.853,3.87L97.28,61.618a4.76,4.76,0,0,1-.41,4.493,4.837,4.837,0,0,1-4,2.132ZM9.412,18.61a3.163,3.163,0,0,0-2.656,1.426,3.112,3.112,0,0,0-.279,3L23.792,63.766a4.78,4.78,0,0,0,4.378,2.9h64.7a3.163,3.163,0,0,0,2.656-1.426,3.112,3.112,0,0,0,.279-3L78.49,21.513a4.78,4.78,0,0,0-4.378-2.9Z" transform="translate(-4.638 -17.02)"/></g><g transform="translate(9.146 8.739)"><path d="M89.655,61.616H26.169a1.573,1.573,0,0,1-1.459-.967L7.854,21.035a.821.821,0,0,1,.066-.754.776.776,0,0,1,.656-.361h63.5a1.573,1.573,0,0,1,1.459.967L90.377,60.5a.821.821,0,0,1-.066.754.756.756,0,0,1-.656.361ZM9.789,21.527l16.38,38.5h62.29l-16.38-38.5Z" transform="translate(-7.792 -19.92)"/></g></g><g transform="translate(0.348)"><path d="M94.735,74.875H30.051A11.078,11.078,0,0,1,19.82,68.1L2.489,27.375A9.535,9.535,0,0,1,11.261,14.11h64.7a11.078,11.078,0,0,1,10.231,6.772L103.507,61.61a9.535,9.535,0,0,1-8.772,13.265ZM11.278,15.7A7.945,7.945,0,0,0,3.965,26.752L21.279,67.48a9.5,9.5,0,0,0,8.772,5.8h64.7a7.945,7.945,0,0,0,7.313-11.051L84.75,21.5a9.5,9.5,0,0,0-8.772-5.8Z" transform="translate(-1.722 -14.11)"/></g><g transform="translate(26.371 9.525)"><path d="M35.214,61.141a.8.8,0,0,1-.738-.492L17.653,21.036a.808.808,0,0,1,.426-1.049.794.794,0,0,1,1.049.426L35.968,60.026a.808.808,0,0,1-.426,1.049.782.782,0,0,1-.328.066Z" transform="translate(-17.593 -19.919)"/></g><g transform="translate(42.423 9.532)"><path d="M45.02,61.138a.8.8,0,0,1-.738-.492L27.443,21.033a.8.8,0,0,1,1.476-.623L45.758,60.023a.808.808,0,0,1-.426,1.049.761.761,0,0,1-.312.066Z" transform="translate(-27.383 -19.923)"/></g><g transform="translate(58.475 9.532)"><path d="M54.81,61.138a.8.8,0,0,1-.738-.492L37.233,21.033a.8.8,0,1,1,1.476-.623L55.548,60.023a.808.808,0,0,1-.426,1.049.711.711,0,0,1-.312.066Z" transform="translate(-37.173 -19.923)"/></g><g transform="translate(19.364 29.366)"><path d="M77.594,33.594H14.107a.787.787,0,0,1-.787-.787.8.8,0,0,1,.787-.787h63.5a.787.787,0,0,1,.787.787A.8.8,0,0,1,77.594,33.594Z" transform="translate(-13.32 -32.02)"/></g><g transform="translate(51.944 64.979)"><g transform="translate(0.787 0.787)"><path d="M81.974,70.272H33.67a8.8,8.8,0,0,1,16.052-4.984h.115a3.132,3.132,0,0,1,4.3-.8,8.235,8.235,0,0,1-.18-1.705A8.565,8.565,0,0,1,70.84,60.762c.967-1.558,2.476-3.312,3.984-2.574.771.377.394,1.918-.246,3.46a3.177,3.177,0,0,1,3.164,3.164v.541A4.987,4.987,0,0,1,81.974,70.272Z" transform="translate(-33.67 -54.22)" fill="#b9dd53"/></g><g transform="translate(0.787 0.754)"><path d="M81.974,70.285H33.67a8.805,8.805,0,0,1,16.052-5.017h.115a3.165,3.165,0,0,1,2.558-1.328,3.11,3.11,0,0,1,1.754.525,8.235,8.235,0,0,1-.18-1.705,8.565,8.565,0,0,1,16.888-2.017c.967-1.558,2.476-3.312,3.984-2.574.771.377.394,1.918-.246,3.46a3.17,3.17,0,0,1,3.164,3.181v.541c.213.033.426.1.639.148a5.013,5.013,0,0,1,3.574,4.788Z" transform="translate(-33.67 -54.2)" fill="#b9dd53"/></g><g transform="translate(0.787 12.084)"><path d="M81.974,65.865H33.67a8.773,8.773,0,0,1,.623-3.279l.262-.131s27.529,1.3,43.877-1.344A4.953,4.953,0,0,1,81.974,65.865Z" transform="translate(-33.67 -61.11)" fill="#a3c134"/></g><g transform="translate(36.597 6.506)"><path d="M56.313,60.335a.809.809,0,0,1-.377-.1.792.792,0,0,1-.328-1.082c.164-.312.377-.689.607-1.066a.8.8,0,0,1,1.361.836c-.213.344-.394.672-.557.967a.793.793,0,0,1-.705.443Z" transform="translate(-55.51 -57.708)" fill="#050505"/></g><path d="M82.281,71.382h-48.3a.787.787,0,0,1-.787-.787A9.6,9.6,0,0,1,50.16,64.43a3.989,3.989,0,0,1,3.345-.869c0-.148-.016-.312-.016-.459a9.366,9.366,0,0,1,17.938-3.771c1.705-2.066,3.132-2.017,4.083-1.558,1.656.8.508,3.574.148,4.476a.79.79,0,1,1-1.459-.607c.82-2,.59-2.492.574-2.492-1.017-.475-2.377,1.459-2.919,2.328a.791.791,0,0,1-1.443-.246,7.7,7.7,0,0,0-7.542-5.919A7.788,7.788,0,0,0,55.1,63.086a6.3,6.3,0,0,0,.164,1.525.84.84,0,0,1-.328.836.792.792,0,0,1-.885,0,2.414,2.414,0,0,0-3.214.59.8.8,0,0,1-.656.344h-.115a.8.8,0,0,1-.656-.344,8,8,0,0,0-14.56,3.738H81.412a4.187,4.187,0,0,0-3.443-3.345.808.808,0,0,1-.672-.787V65.1a.787.787,0,0,1,.787-.787.8.8,0,0,1,.787.705,5.77,5.77,0,0,1,4.181,5.558.777.777,0,0,1-.771.8Z" transform="translate(-33.19 -53.74)" fill="#050505"/><g transform="translate(40.172 7.416)"><path d="M58.493,61.275a.854.854,0,0,1-.475-.148.807.807,0,0,1-.18-1.115,3.508,3.508,0,0,0,.639-1.164.789.789,0,0,1,1.525.41,4.679,4.679,0,0,1-.885,1.689.692.692,0,0,1-.623.328Z" transform="translate(-57.691 -58.263)" fill="#050505"/></g></g></g><g transform="translate(79.949 0)"><g transform="translate(6.313 6.296)"><path d="M64.8,10.564a5.206,5.206,0,0,1-5.214,5.214h-.262a5.214,5.214,0,1,1,0-10.428h.262A5.217,5.217,0,0,1,64.8,10.564Z" transform="translate(-54.11 -5.35)" fill="#ffca6b"/></g><g transform="translate(6.444 7.378)"><path d="M64.749,10.142a5.206,5.206,0,0,1-5.214,5.214h-.262a5.2,5.2,0,0,1-5.083-4.1,5.244,5.244,0,0,0,3.181,1.082h.262a5.206,5.206,0,0,0,5.214-5.214,6.27,6.27,0,0,0-.115-1.115A5.222,5.222,0,0,1,64.749,10.142Z" transform="translate(-54.19 -6.01)" fill="#ef8f06"/></g><g transform="translate(17.425 3.128)"><g transform="translate(0 13.986)"><path d="M62.876,14.739a.81.81,0,0,1-.557-.23l-1.2-1.2a.8.8,0,1,1,1.131-1.131l1.2,1.2a.8.8,0,0,1,0,1.131A.915.915,0,0,1,62.876,14.739Z" transform="translate(-60.887 -11.948)"/></g><g transform="translate(2.644 7.612)"><path d="M64.976,9.634H63.287a.787.787,0,0,1-.787-.787.8.8,0,0,1,.787-.787h1.689a.787.787,0,1,1,0,1.574Z" transform="translate(-62.5 -8.06)"/></g><path d="M61.679,6.209a.81.81,0,0,1-.557-.23.8.8,0,0,1,0-1.131l1.2-1.2a.8.8,0,0,1,1.131,1.131l-1.2,1.2A.915.915,0,0,1,61.679,6.209Z" transform="translate(-60.887 -3.417)"/></g><g transform="translate(5.526 5.509)"><path d="M59.893,16.888h-.262a6.009,6.009,0,0,1,0-12.018h.262a6.009,6.009,0,0,1,0,12.018ZM59.7,6.46a4.419,4.419,0,1,0-.066,8.838h.2a4.419,4.419,0,1,0,.066-8.838Z" transform="translate(-53.63 -4.87)"/></g><g transform="translate(8.444 9.235)"><g transform="translate(0 0)"><path d="M56.2,10.91a.787.787,0,0,1-.787-.787,3.732,3.732,0,0,1,1.181-2.755.8.8,0,0,1,1.115,1.148,2.23,2.23,0,0,0-.689,1.623.825.825,0,0,1-.82.771Z" transform="translate(-55.41 -7.142)" fill="#fff"/></g></g><g transform="translate(10.871)"><path d="M57.677,4.773a.787.787,0,0,1-.787-.787V2.3a.787.787,0,0,1,.787-.787.8.8,0,0,1,.787.787V3.986A.767.767,0,0,1,57.677,4.773Z" transform="translate(-56.89 -1.51)"/><g transform="translate(0 19.79)"><path d="M57.677,16.843a.787.787,0,0,1-.787-.787V14.367a.787.787,0,0,1,.787-.787.8.8,0,0,1,.787.787v1.689A.777.777,0,0,1,57.677,16.843Z" transform="translate(-56.89 -13.58)"/></g></g><g transform="translate(3.128 17.114)"><path d="M52.959,14.739a.81.81,0,0,1-.557-.23.8.8,0,0,1,0-1.131l1.2-1.2a.8.8,0,1,1,1.131,1.131l-1.2,1.2a.849.849,0,0,1-.574.23Z" transform="translate(-52.168 -11.948)"/></g><g transform="translate(0 10.74)"><path d="M52.736,9.634H51.047a.787.787,0,0,1-.787-.787.8.8,0,0,1,.787-.787h1.689a.787.787,0,1,1,0,1.574Z" transform="translate(-50.26 -8.06)"/></g><g transform="translate(3.128 3.128)"><path d="M54.156,6.209a.81.81,0,0,1-.557-.23l-1.2-1.2a.8.8,0,0,1,1.131-1.131l1.2,1.2a.8.8,0,0,1,0,1.131A.849.849,0,0,1,54.156,6.209Z" transform="translate(-52.168 -3.417)"/></g></g><g transform="translate(0 5.591)"><g transform="translate(0.803 0.787)"><path d="M1.99,12.664A4.261,4.261,0,0,1,9.418,9.811a3.4,3.4,0,0,1,4.9-.623,3.159,3.159,0,0,1-.016-.394,3.394,3.394,0,0,1,6.788,0h.836a3.866,3.866,0,0,1,3.87,3.87" transform="translate(-1.99 -5.4)" fill="#f1f3f6"/></g><path d="M29.193,13.774H26.111a.787.787,0,0,1-.787-.787A3.079,3.079,0,0,0,22.241,9.9h-.836a.8.8,0,0,1-.689-.394A.74.74,0,0,1,20.6,9.1a2.6,2.6,0,0,0-5.2,0,1.782,1.782,0,0,0,.016.3.8.8,0,0,1-.41.787.77.77,0,0,1-.885-.082,2.593,2.593,0,0,0-3.755.492.739.739,0,0,1-.607.328.755.755,0,0,1-.623-.262,3.471,3.471,0,0,0-6.05,2.312.787.787,0,0,1-.787.787.8.8,0,0,1-.8-.771,5.052,5.052,0,0,1,5.05-5.05A5.142,5.142,0,0,1,9.682,9.019a4.237,4.237,0,0,1,4.23-.836,4.189,4.189,0,0,1,8.2.131h.115a4.672,4.672,0,0,1,4.607,3.87h2.361a.8.8,0,0,1,0,1.59Z" transform="translate(-1.5 -4.92)"/></g><g transform="translate(46.467)"><g transform="translate(0.787 0.771)"><path d="M30.32,9.26a4.261,4.261,0,0,1,7.428-2.853,3.389,3.389,0,0,1,4.9-.639,3.159,3.159,0,0,1-.016-.394,3.394,3.394,0,0,1,6.788,0h.836a3.866,3.866,0,0,1,3.87,3.87" transform="translate(-30.32 -1.98)" fill="#f1f3f6"/></g><path d="M57.517,10.348H54.435a.787.787,0,0,1-.787-.787,3.079,3.079,0,0,0-3.083-3.083h-.836a.789.789,0,0,1-.738-.492.957.957,0,0,1-.066-.3,2.591,2.591,0,0,0-5.181,0,1.782,1.782,0,0,0,.016.3.8.8,0,0,1-.41.787.767.767,0,0,1-.885-.082,2.621,2.621,0,0,0-1.656-.59,2.579,2.579,0,0,0-2.1,1.082.806.806,0,0,1-1.246.066,3.471,3.471,0,0,0-6.05,2.312.787.787,0,0,1-.787.787.8.8,0,0,1-.787-.787,5.052,5.052,0,0,1,5.05-5.05,5.142,5.142,0,0,1,3.132,1.082,4.26,4.26,0,0,1,4.247-.82,4.189,4.189,0,0,1,8.2.131h.115a4.672,4.672,0,0,1,4.607,3.87H57.55a.787.787,0,0,1,.787.787.816.816,0,0,1-.82.787Z" transform="translate(-29.84 -1.51)"/></g></g><g transform="translate(18.54 39.937)"><path d="M16.206,33.414a.785.785,0,0,1-.721-.475l-2.607-5.952a.8.8,0,0,1,1.459-.639L16.944,32.3a.794.794,0,0,1-.738,1.115Z" transform="translate(-12.807 -25.867)" fill="#fff"/></g><g transform="translate(16.031 34.182)"><path d="M12.757,25.543a.785.785,0,0,1-.721-.475l-.689-1.59a.8.8,0,0,1,1.459-.639l.689,1.59a.794.794,0,0,1-.738,1.115Z" transform="translate(-11.277 -22.357)" fill="#fff"/></g></svg>