<svg xmlns="http://www.w3.org/2000/svg" xmlns:xlink="http://www.w3.org/1999/xlink" width="85" height="94" viewBox="0 0 85 94"><defs><clipPath id="a"><rect width="59.279" height="58.7" transform="translate(0 0)" fill="none"/></clipPath></defs><g transform="translate(-285 -1507.006)"><g transform="translate(-0.051 -210)"><g transform="translate(285.051 1717.006)"><rect width="85" height="94" rx="13" fill="#f2f3fc"/></g></g><g transform="translate(296.721 1524.656)"><g clip-path="url(#a)"><path d="M50.377,30.3l.506-15.6a3.233,3.233,0,0,1,1.112-2.5,3.658,3.658,0,0,1,6.171,2.6V38.3L41.576,53.5v3.9H32.27v-13l-2.53-2L45.522,29.9a3.524,3.524,0,0,1,4.248-.1c.2.2.4.3.607.5" fill="#eabd8c"/><path d="M27.212,58.7A1.331,1.331,0,0,1,25.9,57.4v-13a1.381,1.381,0,0,1,.506-1L44.814,28.9a4.757,4.757,0,0,1,5.867-.1,1.353,1.353,0,0,1,.2,1.8,1.39,1.39,0,0,1-1.821.2,2.145,2.145,0,0,0-2.63,0L28.526,45V57.4a1.331,1.331,0,0,1-1.314,1.3"/><path d="M13.96,29.9a3.314,3.314,0,0,0-4.755.5L8.7,14.8a3.233,3.233,0,0,0-1.112-2.5,3.616,3.616,0,0,0-2.529-1,3.606,3.606,0,0,0-3.642,3.6V38.4l16.59,15.2v3.9H32.371v-13c-.809-.6-17.1-13.6-18.411-14.6" fill="#ffd8a8"/><path d="M5.058,1.2A1.91,1.91,0,0,1,6.98,3.1,1.771,1.771,0,0,1,5.058,4.9,1.85,1.85,0,0,1,3.136,3,1.827,1.827,0,0,1,5.058,1.2" fill="#74829c"/><path d="M5.766,49.9A2.49,2.49,0,0,1,8.3,52.4a2.529,2.529,0,0,1-5.057,0,2.489,2.489,0,0,1,2.528-2.5" fill="#74829c"/><path d="M54.423,49.9a1.9,1.9,0,1,1,0,3.8,1.9,1.9,0,1,1,0-3.8" fill="#74829c"/><path d="M29.64,11.9h0a12.816,12.816,0,0,1,2.226-3c3.54-3.5,8.7-4.6,14.262-3.7C47.95,15.7,41.677,23.5,31.36,23.3a17.256,17.256,0,0,0-1.72-11.4" fill="#536949"/><path d="M31.359,23.3c-11.937,2-20.03-6-18.007-17.8,11.938-1.9,19.929,6,18.007,17.8" fill="#80af52"/><path d="M56.244,4.5c0,.1.1.3.1.4a1.3,1.3,0,0,1-2.53.4c0-.1-.1-.3-.1-.4a1.258,1.258,0,0,1,.911-1.2c.1,0,.3-.1.4-.1a1.61,1.61,0,0,1,1.214.9"/><path d="M44.813,24.5c0,.1.1.3.1.4a1.3,1.3,0,0,1-2.53.4c0-.1-.1-.3-.1-.4a1.257,1.257,0,0,1,.909-1.2c.1,0,.305-.1.4-.1a1.332,1.332,0,0,1,1.214.9"/><rect width="2.529" height="2.5" transform="translate(29.74 27.4)"/><path d="M32.168,35.8c0,.1.1.3.1.4a1.3,1.3,0,0,1-2.53.4c0-.1-.1-.3-.1-.4a1.257,1.257,0,0,1,.91-1.2c.1,0,.3-.1.4-.1a1.118,1.118,0,0,1,1.214.9"/><path d="M30.954,3.3c0,.1.1.3.1.4a1.259,1.259,0,0,1-.911,1.2,1.248,1.248,0,0,1-1.619-.8c0-.1-.1-.3-.1-.4a1.258,1.258,0,0,1,.91-1.2c.1,0,.3-.1.4-.1a1.27,1.27,0,0,1,1.214.9"/><rect width="7.587" height="2.5" transform="translate(20.939 27.4)"/><path d="M14.466,20.8c0,.1.1.3.1.4a1.259,1.259,0,0,1-.911,1.2,1.246,1.246,0,0,1-1.618-.8c0-.1-.1-.3-.1-.4a1.258,1.258,0,0,1,.91-1.2c.1,0,.3-.1.4-.1a1.119,1.119,0,0,1,1.214.9"/><path d="M4.35,44.5c0,.1.1.3.1.4a1.259,1.259,0,0,1-.911,1.2,1.248,1.248,0,0,1-1.619-.8c0-.1-.1-.3-.1-.4a1.259,1.259,0,0,1,.911-1.2c.1,0,.3-.1.4-.1a1.333,1.333,0,0,1,1.214.9"/><path d="M40.463,44.6a1.1,1.1,0,0,1-.91-.4,1.262,1.262,0,0,1,.1-1.8l9.509-8.6a2,2,0,0,0,.2-2.8l-.3-.3a1.353,1.353,0,0,1-.2-1.8,1.392,1.392,0,0,1,1.822-.2,4.7,4.7,0,0,1,.708.7,4.478,4.478,0,0,1-.506,6.2l-9.509,8.6a1.244,1.244,0,0,1-.911.4"/><path d="M41.576,58.7h0a1.331,1.331,0,0,1-1.315-1.3V53.5a1.079,1.079,0,0,1,.4-.9L56.851,37.8v-23a2.276,2.276,0,0,0-2.327-2.3A2.405,2.405,0,0,0,52.1,14.9l-.505,15.6a1.266,1.266,0,0,1-2.53-.1l.506-15.6a4.733,4.733,0,0,1,1.417-3.4,4.876,4.876,0,0,1,8.295,3.4V38.3a1.079,1.079,0,0,1-.4.9L42.688,54v3.4a1.112,1.112,0,0,1-1.112,1.3"/><path d="M34.495,18.1a1.24,1.24,0,0,1-.91-.4,1.257,1.257,0,0,1,0-1.8l7.081-7.2a1.292,1.292,0,0,1,1.82,0,1.257,1.257,0,0,1,0,1.8L35.4,17.7a.99.99,0,0,1-.91.4"/><path d="M31.662,21.1a1.243,1.243,0,0,1-.91-.4,1.257,1.257,0,0,1,0-1.8l2.934-3a1.293,1.293,0,0,1,1.821,0,1.257,1.257,0,0,1,0,1.8l-2.934,3a1.242,1.242,0,0,1-.911.4"/><path d="M37.732,14.8a1.2,1.2,0,0,1-1.214-1.1,1.247,1.247,0,0,1,1.112-1.4l3.844-.6a1.259,1.259,0,1,1,.3,2.5l-3.844.6Z"/><path d="M34.495,18.1a1.331,1.331,0,0,1-1.315-1.3,1.206,1.206,0,0,1,1.113-1.2l3.641-.5a1.259,1.259,0,1,1,.3,2.5l-3.642.5Z"/><path d="M31.662,21.1a1.162,1.162,0,0,1-1.214-1.2,1.246,1.246,0,0,1,1.214-1.3l3.237-.2a1.251,1.251,0,1,1,.1,2.5Z"/><path d="M35.4,17.2h-.2a1.246,1.246,0,0,1-1.112-1.4l.5-4a1.274,1.274,0,0,1,2.53.3l-.506,4A1.143,1.143,0,0,1,35.4,17.2"/><path d="M31.359,24.6a1.244,1.244,0,0,1-.911-.4L16.893,10.9a1.257,1.257,0,0,1,0-1.8,1.292,1.292,0,0,1,1.82,0L32.168,22.4a1.259,1.259,0,0,1,0,1.8.924.924,0,0,1-.809.4"/><path d="M21.749,15.1h-.2L17.6,14.6a1.259,1.259,0,1,1,.3-2.5l3.946.6a1.248,1.248,0,0,1,1.112,1.4,1.2,1.2,0,0,1-1.214,1"/><path d="M25.087,18.5h-.2l-3.844-.6a1.259,1.259,0,1,1,.3-2.5l3.945.6A1.248,1.248,0,0,1,26.4,17.4a1.4,1.4,0,0,1-1.316,1.1"/><path d="M28.526,21.8h-.2l-3.945-.6a1.259,1.259,0,1,1,.3-2.5l3.946.6a1.247,1.247,0,0,1,1.112,1.4,1.2,1.2,0,0,1-1.214,1.1"/><path d="M23.975,17.4a1.287,1.287,0,0,1-1.214-1.1l-.607-3.9a1.273,1.273,0,0,1,2.529-.3l.608,3.9a1.249,1.249,0,0,1-1.114,1.4Z"/><path d="M27.313,20.7A1.29,1.29,0,0,1,26.1,19.6l-.6-3.9a1.273,1.273,0,0,1,2.528-.3l.607,3.9a1.248,1.248,0,0,1-1.114,1.4Z"/><path d="M31.662,24.6h-.3a1.246,1.246,0,0,1-1.214-1.3,1.223,1.223,0,0,1,1.214-1.2,13.44,13.44,0,0,0,10.116-3.7c2.933-2.9,4.147-7.2,3.541-12.1-4.958-.6-9.307.6-12.241,3.5a10.537,10.537,0,0,0-2.023,2.7,1.3,1.3,0,0,1-1.72.5,1.276,1.276,0,0,1-.506-1.7,15.771,15.771,0,0,1,2.428-3.2C34.7,4.4,40.058,3,46.331,4a1.292,1.292,0,0,1,1.011,1c1.012,6.1-.4,11.5-4.148,15.2a15.89,15.89,0,0,1-11.532,4.4"/><path d="M27.718,24.9a16.132,16.132,0,0,1-11.634-4.4c-3.743-3.7-5.159-9-4.148-15.2a1.293,1.293,0,0,1,1.012-1A24.582,24.582,0,0,1,16.691,4,16.133,16.133,0,0,1,28.324,8.4a12.4,12.4,0,0,1,2.226,2.9v.1a16.854,16.854,0,0,1,2.124,8.5,22.856,22.856,0,0,1-.3,3.7,1.293,1.293,0,0,1-1.012,1,21.47,21.47,0,0,1-3.641.3M14.364,6.6c-.607,4.9.607,9.2,3.541,12.1a13.516,13.516,0,0,0,9.813,3.7,19.87,19.87,0,0,0,2.427-.2,19.231,19.231,0,0,0,.2-2.4,14.237,14.237,0,0,0-1.821-7.3,10.783,10.783,0,0,0-1.82-2.4,13.517,13.517,0,0,0-9.813-3.7c-.809.1-1.619.1-2.529.2"/><path d="M19.018,44.6a1.16,1.16,0,0,1-.81-.3L8.7,35.7a4.477,4.477,0,0,1-.506-6.2,4.647,4.647,0,0,1,.708-.7,1.417,1.417,0,0,1,1.821.2,1.377,1.377,0,0,1-.2,1.8l-.3.3a2.11,2.11,0,0,0,.1,2.8l9.509,8.6a1.362,1.362,0,0,1,.1,1.8,1.641,1.641,0,0,1-.91.3"/><path d="M17.905,58.7a1.4,1.4,0,0,1-1.315-1.2V54.1L.4,39.3a1.078,1.078,0,0,1-.4-.9V14.7A4.829,4.829,0,0,1,4.855,9.9,4.847,4.847,0,0,1,8.3,11.3a4.736,4.736,0,0,1,1.416,3.4l.5,15.6a1.266,1.266,0,0,1-2.529.1L7.181,14.8a2.327,2.327,0,0,0-.708-1.7,2.452,2.452,0,0,0-1.719-.7,2.277,2.277,0,0,0-2.327,2.3v23L18.613,52.5a1.078,1.078,0,0,1,.4.9v3.9c.2.8-.4,1.3-1.112,1.4"/><path d="M32.27,58.7a1.332,1.332,0,0,1-1.316-1.3V45l-17.8-14.2a2.145,2.145,0,0,0-2.63,0A1.417,1.417,0,0,1,8.7,30.6a1.376,1.376,0,0,1,.2-1.8,4.758,4.758,0,0,1,5.867.1l18.31,14.5a1.228,1.228,0,0,1,.506,1v13a1.331,1.331,0,0,1-1.315,1.3"/><path d="M44.914,58.7H14.566a1.3,1.3,0,1,1,0-2.6H44.914a1.3,1.3,0,1,1,0,2.6"/><path d="M5.766,56.2a3.8,3.8,0,1,1,3.845-3.8,3.888,3.888,0,0,1-3.845,3.8m0-5a1.3,1.3,0,1,0,1.315,1.3,1.4,1.4,0,0,0-1.315-1.3"/><path d="M54.423,54.9a3.1,3.1,0,1,1,3.137-3.1,3.134,3.134,0,0,1-3.137,3.1m0-3.7a.6.6,0,1,0,.607.6.58.58,0,0,0-.607-.6"/><path d="M5.058,6.2A3.134,3.134,0,0,1,1.922,3.1a3.136,3.136,0,0,1,6.272,0A3.134,3.134,0,0,1,5.058,6.2m0-3.8a.648.648,0,0,0-.606.6.648.648,0,0,0,.606.6A.649.649,0,0,0,5.665,3a.58.58,0,0,0-.607-.6"/></g></g></g></svg>